<svg xmlns="http://www.w3.org/2000/svg" xmlns:xlink="http://www.w3.org/1999/xlink" viewBox="0 0 500 500" xmlns:v="https://vecta.io/nano"><style><![CDATA[.B{fill:#263238}.C{fill:#0e75f5}.D{fill:#eb9481}.E{fill:#ebebeb}.F{opacity:.1}.G{fill:#455a64}]]></style><ellipse cx="250" cy="453.43" rx="115.81" ry="16.8" class="E"/><path d="M34.56 397.17l53.86-.24 53.86-.09 107.72-.17 107.72.17 53.86.09 53.86.24-53.86.25-53.86.08-107.72.17-107.72-.17-53.86-.08-53.86-.25z" class="B"/><path d="M98.8 317.31A64.92 64.92 0 0 0 96.73 329c.11.2.09.92 0 .72 0 .64-1 .53-1-.11v-1.22c-2.28-2.84-5.6-4.64-8.29-7.11a15.53 15.53 0 0 1-4.54-7.22c-2.22-7.67-.14-15.8-2.81-23.45-2.31-6.59-6.45-12.33-9.95-18.3-3.7-6.32-6.42-13-6.7-20.36-.21-5.67.46-13.22 4.78-17.47 4.57-4.5 10.24-1.12 13.75 2.89 10.17 11.63 14.87 26.4 16.77 41.46 1 8.34 2.13 16.73 1.88 25.14a67.25 67.25 0 0 1-1.82 13.34z" class="C"/><path d="M96.78 332.07a144.39 144.39 0 0 0-.28-23.62v-.08c.13-6.39.63-12.75.38-19.14a113.58 113.58 0 0 0-2.81-20.52c0-.08-.14-.06-.12 0a134 134 0 0 1 2.22 20.07q.2 5.42-.09 10.82c-.06 1.17-.17 2.35-.24 3.54h0a126.26 126.26 0 0 0-19-50.27c-.13-.21-.5 0-.37.23A131.4 131.4 0 0 1 92 290.38c-4.89-9.05-12.26-16.49-17.74-25.19 0-.05-.1 0-.08.05 4.92 9.68 13 17.32 18.22 26.85a135.05 135.05 0 0 1 2.18 11.76 133.43 133.43 0 0 1 1.18 16.34c-3-5.56-6.07-10.88-8.5-16.76-.06-.16-.29-.05-.24.1 2.07 6.11 4.86 12.69 8.75 17.9 0 3.87-.09 7.74-.32 11.6-.6 10.31-2.37 20.49-3.18 30.76a.24.24 0 0 0 .47.06 237.68 237.68 0 0 0 4.04-31.78zm-10.95-79.52c0-.07-.14 0-.11 0 1.88 5.21 2.94 10.49 4.3 15.83a.2.2 0 0 0 .39-.07c-.55-5.31-2.48-10.77-4.58-15.76z" class="B"/><path d="M133.65 274.38a77.74 77.74 0 0 1-4.33 8.9c-3.39 6.16-6.93 11.8-7.57 19-.28 3.2-.38 6.42-1.36 9.5a28.24 28.24 0 0 1-3.79 7.44c-3.67 5.36-8.27 10-11.67 15.53a65.22 65.22 0 0 0-7.76 18.7c-.09.36-.65.27-.57-.09a.24.24 0 0 0 0-.08.15.15 0 0 1 0-.08c-.54-15.38.69-30.87 5.38-45.6a157.46 157.46 0 0 1 7.45-19c2.51-5.34 5.64-10.48 10-14.47 2.86-2.58 9.07-7.46 13.14-4.88 2 1.25 1.85 3.21 1.08 5.13z" class="C"/><path d="M118.2 309.24a125.87 125.87 0 0 1-8.94 12.84l-4.48 5.82-2.13 2.82 1.21-4.85c2-7.77 3.89-15.61 6.85-23.08a157.24 157.24 0 0 1 10.67-20.93c.11-.17-.18-.3-.29-.13-3.24 5.34-6.54 10.68-9.27 16.31a86.1 86.1 0 0 0-3.94 9.68 149.84 149.84 0 0 1 5.24-20.72c0-.06-.07-.1-.09 0a70.84 70.84 0 0 0-5.44 21.51 0 0 0 0 0 0 0 137.53 137.53 0 0 0-1.85 6c-2.42 8.6-4.55 17.29-6.52 26a92.58 92.58 0 0 1 1.48-17.1c0-.13-.17-.16-.2 0a54.24 54.24 0 0 0-1.49 18q-1.11 5-2.18 10c-1.51 7.09-3.36 14.3-4.25 21.5a.15.15 0 0 0 .29.05c1.05-3.88 1.69-7.91 2.55-11.83l2.67-11.8 4.16-17.13c1-2.09 2.8-3.95 4.18-5.7l4.5-5.8a86.71 86.71 0 0 0 7.4-11.45c.05-.04-.08-.09-.13-.01zm.66-6.58a79.65 79.65 0 0 0-8.75 13.9c0 .06.07.12.11.06l8.77-13.87c.01-.08-.08-.16-.13-.09z" class="B"/><path d="M53.4 289c2 3.43 4.27 7.55 3.41 11.67-.54 2.61-2.45 4.73-2.79 7.39-.78 5.87 5.08 9.75 9.31 12.53 10.56 6.93 25 13.1 27 27.25.07.5.94.37.88-.12a.29.29 0 0 0 0-.09v-.08A54.22 54.22 0 0 0 91 325.9c-1.57-7.29-4.76-13.84-8.51-20.25-6.36-10.84-13.09-21.94-22.69-30.24-2.66-2.3-8.11-6.43-10.23-1.25S51 284.77 53.4 289z" class="C"/><path d="M63.06 311.94c7 7.58 18.13 11.83 24.16 20.32a85 85 0 0 0-18.57-34.88.27.27 0 0 1 .35-.38 68.63 68.63 0 0 1 15.17 22 98.42 98.42 0 0 0-6.53-16.71.18.18 0 0 1 .31-.18 63.9 63.9 0 0 1 7 18.78c7.94 19.22 8.68 41.76 7 62a.23.23 0 0 1-.46 0c.46-16 .2-32.21-3.62-47.8l-.25-1c-6.56-9.14-17.64-13.37-24.77-22.05.02-.04.15-.18.21-.1zm-1.62-6.51l11 10.19v.07a53.74 53.74 0 0 1-11.14-10c-.2-.19-.01-.4.14-.26zm-.58-14.61a115.65 115.65 0 0 0 11 15.13c0 .06 0 .15-.1.09a53.53 53.53 0 0 1-11.1-15.1.12.12 0 0 1 .2-.12z" class="B"/><path d="M77.41 397.17h32.18l-4.33-43.3h-22.9l-4.95 43.3z" class="G"/><path d="M81.56 360.9h24.41l-.71-7.03h-22.9l-.8 7.03z" class="B"/><path d="M108.59 355.98H78.42v-6.91h30.17z" class="G"/><path d="M233.74 351l28.46 37.59c5.48 7.16 10.15 13.53 12.26 17.05v.06a6.32 6.32 0 0 1 1.17 2.61v.08c-1 3.07-56.93 48.5-59.42 49.43s-5.32-6.07-4.56-9.57 14.4-30.47 14.4-30.47L198 379.92z" class="D"/><path d="M256.36 380.84l5.84 7.71c5.48 7.16 10.15 13.53 12.26 17.05v.06a12.7 12.7 0 0 1 1.17 2.61v.08c-1 3.07-56.93 48.5-59.42 49.43s-5.32-6.07-4.56-9.57 14.4-30.47 14.4-30.47L220 410z" class="E"/><path d="M216.23 457.78c2.49-.92 58.39-46.35 59.42-49.43.41-1.17-5.73-9.7-13.45-19.79l-.25-.32-36.39 28.91.51.6s-13.62 27-14.4 30.47 2.08 10.5 4.56 9.56z" class="C"/><path d="M215.1 455.1c9.24-7.89 47.23-38.83 57-45.93.08-.06.13 0 .05.06-9 8-47.23 38.66-56.88 46-.27.18-.36.04-.17-.13zm8.03-34.78c3.14-3.71 8.14-6.82 13.12-6.48.2 0 .17.28 0 .34a67.3 67.3 0 0 0-12.75 6.6.31.31 0 0 1-.37-.46zm-1.37 3.79c3.15-3.71 8.15-6.82 13.13-6.48.19 0 .17.28 0 .34a67.23 67.23 0 0 0-12.75 6.59.3.3 0 0 1-.38-.45zm-1.36 3.79c3.14-3.71 8.14-6.83 13.12-6.49.19 0 .17.29 0 .35a67.84 67.84 0 0 0-12.75 6.59.3.3 0 0 1-.37-.45z" class="B"/><path d="M260.09 383.63l-38.95 32.64s-44.82-57.27-54.93-86.14c-7.19-20.57 26-123.51 26-123.51l42.47-2.87s-27.49 99.14-24.44 108.77c3.76 11.73 49.85 71.11 49.85 71.11z" fill="#37474f"/><g class="B"><path d="M216.81 406.9c6.05-5 4.24-3.67 10.36-8.62 3-2.43 22.65-18.35 25.84-20.13.07 0 .15.07.1.13-2.45 2.7-22.39 18.28-25.42 20.65l-10.74 8.15a.114.114 0 1 1-.14-.18zm30.35-30.34Q236.27 363 226 348.9c-6.8-9.32-13.51-18.78-19.61-28.57a30.75 30.75 0 0 1-3.51-7.08 18.62 18.62 0 0 1-.3-8.75c.95-5.79 2.16-11.55 3.37-17.29q3.66-17.28 8.32-34.34c3.1-11.36 6.57-22.62 10.24-33.81l1.37-4.13c.07-.2-.25-.28-.32-.08q-6.18 16.82-11.1 34.06-4.92 17.24-8.77 34.55-1.92 8.73-3.57 17.54a36.67 36.67 0 0 0-1 8.72 19.19 19.19 0 0 0 2.09 7.33 58.91 58.91 0 0 0 4.29 7.05q2.42 3.64 4.9 7.26 5 7.29 10.2 14.43c6.9 9.44 14 18.79 21.63 27.66l2.8 3.25c.03.1.21-.04.13-.14z"/><path d="M234.72 203.75l-14.92 57-25.34-54.32z"/></g><path d="M285.23 269.67l25.38-33.36c5.92-6.79 11.23-12.65 14.26-15.42a.07.07 0 0 1 .05 0c1.14-1 1.95-1.65 2.33-1.66h.07c3.22.39 58.91 46.09 60.31 48.34s-4.89 6.43-8.47 6.38-32.73-8-32.73-8l-27 33.37z" class="D"/><path d="M327.25 219.19h.07c3.22.4 58.91 46.1 60.31 48.35s-4.89 6.43-8.46 6.38-32.74-8-32.74-8l-4.86 6.69-36.08-29.53c2.83-4 5.12-6.72 5.13-6.73 5.91-6.8 11.21-12.65 14.24-15.41l.06-.05c1.14-1.09 1.95-1.69 2.33-1.7z" class="E"/><path d="M387.63 267.52c-1.4-2.25-57.09-47.95-60.31-48.34-1.22-.17-8.35 7.55-16.7 17.13l-.26.31L346 266.5l.49-.62s29.14 8 32.73 8 9.83-4.12 8.41-6.36z" class="C"/><path d="M385.23 269.16c-9.57-7.47-47.49-38.52-56.39-46.63-.07-.07 0-.12.05-.06 9.65 7.2 47.32 38.55 56.47 46.54.19.16.07.31-.13.15zm-35.68-.91c-4.26-2.34-8.32-6.62-9-11.57 0-.19.25-.22.34-.09a67.63 67.63 0 0 0 9 11.18.3.3 0 0 1-.34.48zm3.98.58c-4.26-2.34-8.31-6.62-9-11.57 0-.19.24-.22.33-.08a67.51 67.51 0 0 0 9 11.17.31.31 0 0 1-.33.48zm3.98.58c-4.25-2.34-8.31-6.62-9-11.56 0-.2.25-.23.34-.09a67.14 67.14 0 0 0 9 11.17.31.31 0 0 1-.34.48z" class="B"/><path d="M193,206.53v.05c.25.86,4.15,14.43,8,26.06,2.82,8.49,5.64,15.93,7,16.63,1.55.78,9.06,3.52,11.58,4.37,0,0,16.16,55.91,29.62,74.1,4.61,6.24,25.61,12.48,35.88,5.74,24.1-15.8,59.79-56.89,59.79-56.89l-41.58-34-29.44,39c-7.29-13.53-11.25-40.84-11.25-40.84s-1.65-27-11.55-38.21Z" fill="#37474f"/><g class="B"><path d="M334.85 281.55c-6.26-4.76-4.53-3.31-10.74-8.14-3-2.37-23-17.92-25.44-20.63a.08.08 0 0 1 .09-.12c3.19 1.77 22.87 17.67 25.87 20.09l10.36 8.62a.114.114 0 0 1-.14.18zm-85.01-47.42c-1.34-.25-2.75-.26-4.1-.38l-3.28-.38a14.09 14.09 0 0 1-5.86-2c-1.95-1.31-3-3.44-4.08-5.49l-1.89-3.62-.95-1.74a21.33 21.33 0 0 1-1.16-2.09c0-.1-.21 0-.16.06a13.18 13.18 0 0 1 .57 1.52l.66 1.78 1.23 3.15a25.82 25.82 0 0 0 2.67 5.49c2.19 3 5.82 4.05 9.39 4.26a52.11 52.11 0 0 0 3.07.05 21.76 21.76 0 0 0 3.87-.24.185.185 0 0 0 .02-.37zM204 247.6a95.56 95.56 0 0 1 15.51 6 .171.171 0 0 1-.12.32c-5.21-1.83-10.51-3.56-15.62-5.68a.34.34 0 0 1 .23-.64zm-3.84-34.6c0-.18.31-.24.32-.05.37 6 1.11 11.28 2 16.86.42 2.6 3.49 16.87 7.94 15.51.75-.23 1.08-1 1.13-2.15a18.65 18.65 0 0 0-.9-4.38c-.71-3-1.32-6-1.78-9a82.69 82.69 0 0 1-1-17.07.15.15 0 0 1 .29 0 155.34 155.34 0 0 0 3 23.45c.82 3.71 3.09 9.23-.79 10.07s-7.18-8.42-7.84-11a86.72 86.72 0 0 1-2.37-22.24z"/><path d="M210.32 245.74a25 25 0 0 1 1.22 2.92 6.88 6.88 0 0 1 .59 2.42.18.18 0 0 1-.31.09 8.4 8.4 0 0 1-1.21-2.32l-1.22-2.7a.51.51 0 0 1 .93-.41zm88.58 11.48Q289.32 271 278.57 284q-2.91 3.48-5.92 6.88c-6.51-9-9.68-19.76-12.21-30.48l-1.89-8.27a89.65 89.65 0 0 1-1.89-8.9c-.39-3.11-.22-6.28-.5-9.41a72.34 72.34 0 0 0-1.43-9 88.92 88.92 0 0 0-6.84-19.44c0-.08-.18 0-.15.06a119.67 119.67 0 0 1 6 17.61 76.9 76.9 0 0 1 1.66 9.29c.36 3.15.32 6.3.53 9.46a56.86 56.86 0 0 0 1.68 8.87l1.87 8.26a152.26 152.26 0 0 0 4.44 16.07 60.17 60.17 0 0 0 8.45 16.45.3.3 0 0 0 .48 0c7.34-8.43 14.35-17.16 20.84-26.3q2.78-3.9 5.45-7.88c.09-.06-.14-.19-.24-.05z"/><path d="M274.16 281.37a13.25 13.25 0 0 0-.68 1.21l-.21.16a2.49 2.49 0 0 0-.38.34 4.83 4.83 0 0 0-.58.84 4.51 4.51 0 0 0-.44 2 0 0 0 1 0 0 0 4.9 4.9 0 0 1 .66-1.84 5.1 5.1 0 0 1 .53-.78 1.56 1.56 0 0 0 .16-.2c0 .08-.08.15-.11.24a11.92 11.92 0 0 0-.54 2.29 8.26 8.26 0 0 0 0 2.22A11.6 11.6 0 0 0 273 290a0 0 0 0 0 .05 0c0-.74-.09-1.47 0-2.22l.33-2.16a18.82 18.82 0 0 1 .41-2.09l.52-2.13c.02-.06-.1-.1-.15-.03z"/></g><path d="M228.37 138.68c-7.85 5.66-44.53 20.57-57.9 13.83-13.62-6.88-27.11-43.83-29.79-47-7.35-8.78 24.26-21.22 27.15-15.13 4.83 10.17 15.09 37.33 19.8 37.92 9.91 1.24 19-.05 34.5-.24 10.87-.15 14.87 4.37 6.24 10.62z" class="D"/><use xlink:href="#B" class="C"/><use xlink:href="#B" class="F"/><path d="M147.82 125.24c10.31-9.72 22.57-18.28 24.6-19.93.1-.08.21.09.11.17-2.08 1.51-15.06 12.9-24.6 20-.11.03-.21-.15-.11-.24z" class="B"/><path d="M237.33 134.15c-.4 2.94-4.15 6.55-13.83 10.16-22.25 8.32-41 12.64-53.1 9.92-1.5-.34-3.53-1.91-5.81-4.22l72.74-15.86z" class="F"/><g class="D"><path d="M142.71 108.81c3.1 2.31 25-10.58 25.5-14.51a15.45 15.45 0 0 0-.38-4h0s1.54-8.7 5.4-15.49c3.23-5.7 8.68-13.8 5.68-15.65-4.37-2.72-12.49 6.7-16.83 12.38-1.54-3.57-3.19-6.49-4.79-7.85C152 59.24 129 80.3 130.32 87.22c1.29 6.68 9.29 19.29 12.39 21.59z"/><path d="M164.06 72.28c-1.24 3.38-4.52 0-4.52 0s3.54 6 .91 9-6.35-1.36-6.63-1.66c.18.32 3.29 5.94.34 8.68s-6.17-2.08-6.37-2.4c.08.36 1.05 5.1-1.67 6.67-4.67 2.69-7.47-9.37-11.26-11.52l-4.55 6.17s-2.9-11.42.29-16.38a3.76 3.76 0 0 1 4.45-1.57s-1.34-3.58.91-5.8c1.16-1.14 4-.3 4-.3s-1-2.91 1.17-4.77c1.7-1.49 4.3-.41 4.3-.41s.38-3.22 2.61-4.17c4.5-1.94 18.67 11.18 16.02 18.46z"/></g><g class="B"><path d="M145.89 58.1s0-.12.05-.09a33.55 33.55 0 0 1 13.8 14.41c.09.2-.19.43-.33.24a68.73 68.73 0 0 0-13.52-14.56zm-5.95 4.97c-.06 0 0-.14.08-.1 5.88 3.32 11.69 9.4 14.08 16.66.08.25-.1.55-.21.27-1.96-4.7-9.03-12.98-13.95-16.83zm7.84 23.39c-2.56-6.87-7.06-12.23-12.48-17.07-.07-.06 0-.15.1-.12 3.29 1.65 6.43 5.09 8.64 8a19.5 19.5 0 0 1 4 9.13c-.04.11-.2.21-.26.06z"/><path d="M159.66 72.28c.11.24-.35.14-.25.38.43 1 2.48 7.26.57 8.62-1.54 1.09-4.07-.22-4.84-1.11L153.19 78l1.06 2.77a12 12 0 0 1 .81 3.83 4.32 4.32 0 0 1-1.1 3.36 2.47 2.47 0 0 1-3.08.43 7.4 7.4 0 0 1-2.57-2.72l-1.8-3 .71 3.41a11.64 11.64 0 0 1 .23 2.89 4.7 4.7 0 0 1-.81 2.58 2.22 2.22 0 0 1-2.18.86 5 5 0 0 1-2.26-1.58 39.62 39.62 0 0 1-3.49-5L137 83.26a7.36 7.36 0 0 0-2.14-2.2 7.91 7.91 0 0 1 1.9 2.36l1.5 2.68a32.74 32.74 0 0 0 3.31 5.25 5.78 5.78 0 0 0 2.65 2 3.16 3.16 0 0 0 3.26-1.15 5.69 5.69 0 0 0 1.09-3.2 12.52 12.52 0 0 0-.21-3.23l-1.08.41a8.49 8.49 0 0 0 3 3.24 3.53 3.53 0 0 0 2.38.46 4.05 4.05 0 0 0 2.11-1.12 5.41 5.41 0 0 0 1.4-4.25 12.85 12.85 0 0 0-1-4.2l-.89.54c1 1.09 3.69 2.86 6.28 1.48 3.17-2.33-.2-8.89-.9-10.05z"/><path d="M159.54 72.26a7.44 7.44 0 0 0 2 1 1.66 1.66 0 0 0 1.66-.34 3.36 3.36 0 0 0 .77-1.77l.28-2.26a5.57 5.57 0 0 1 .5 2.33 3.34 3.34 0 0 1-.85 2.43 2.42 2.42 0 0 1-1.3.61 2.6 2.6 0 0 1-1.34-.26 3.92 3.92 0 0 1-1.72-1.74z"/></g><path d="M256.34 218c-.21.16-64.72-7-65.25-7.83-.74-1.22 18.48-68.09 33.24-81.82 3.69-3.43 13.9-1.9 18 2.53 20.36 21.99 14.74 86.55 14.01 87.12z" class="E"/><use xlink:href="#C" class="C"/><use xlink:href="#C" class="F"/><use xlink:href="#D" class="C"/><use xlink:href="#D" class="F"/><g class="D"><path d="M245.32 147.26c17.06 17.47 39.67 36.16 52.24 33.49 11.37-2.42 27.71-15.75 45.54-30.12 3.54-2.85-20.09-29.23-23.56-25.81-6.83 6.73-20.85 23.91-26.08 25.81-2.24.81-27.32-11.72-43.76-18-19.96-7.63-11.18 7.67-4.38 14.63z"/><path d="M358.76 138.48c-4.68 5.63-20.92 16.19-25 16.76s-18.14-22.91-16.58-26.88 18.77-21.72 26.09-23.23 20.34 27.51 15.49 33.35z"/><path d="M332.44 109.71c-.57 3.83 4.28 2.32 4.28 2.32s-6.46 3.86-5.52 8c.91 4 6.7 2 7.12 1.85-.34.21-6.18 3.92-4.8 8 1.43 4.27 6.89 1.23 7.25 1-.26.3-3.62 4.28-1.87 7.16 3 5 11.89-5 16.59-5.06l2.93 5.83s6.81-6.94 6.36-13.27a4 4 0 0 0-3.39-3.78s3.12-2.69 2.14-6c-.51-1.68-3.64-2.36-3.64-2.36s2.4-2.26 1.35-5.11c-.83-2.28-3.84-2.61-3.84-2.61s1.3-3.24-.31-5.29c-3.23-3.99-23.41 1.1-24.65 9.32z"/></g><g class="B"><path d="M356.93 105.71a.06.06 0 0 0 0-.11 36.06 36.06 0 0 0-20.47 6.48c-.19.14-.05.5.19.39a73.77 73.77 0 0 1 20.28-6.76zm3.07 7.77c.08 0 .06-.14 0-.14-7.26.1-15.89 2.84-21.9 8.46-.2.19-.19.57.06.37 4.23-3.44 15.18-7.6 21.84-8.69zm-19.52 18.04c6-5.17 13-7.9 20.61-9.67.1 0 .06-.16 0-.17-4-.15-8.7 1.49-12.28 3.07a20.75 20.75 0 0 0-8.48 6.56c-.12.11.02.32.15.21z"/><path d="M336.72 112a22.25 22.25 0 0 0-3.25 2.87 7.93 7.93 0 0 0-2.11 3.57 2.62 2.62 0 0 0 .29 1.85 3.77 3.77 0 0 0 1.36 1.36 4.69 4.69 0 0 0 3.78.1l3-1.1-2.42 2.07a12.88 12.88 0 0 0-2.75 3.19 4.68 4.68 0 0 0-.69 3.75 2.67 2.67 0 0 0 2.68 2 8.06 8.06 0 0 0 3.83-1.24l3.25-1.91-2.43 2.85a12.31 12.31 0 0 0-1.71 2.62 5.09 5.09 0 0 0-.57 2.85 2.4 2.4 0 0 0 1.61 1.94 5.29 5.29 0 0 0 2.95-.32 41.91 41.91 0 0 0 5.87-2.88l2.94-1.55a7.86 7.86 0 0 1 3.16-1 8.51 8.51 0 0 0-3 1.24c-1 .56-1.87 1.16-2.8 1.76a35.23 35.23 0 0 1-5.84 3.25 6.17 6.17 0 0 1-3.52.5 3.4 3.4 0 0 1-2.49-2.77 6.26 6.26 0 0 1 .61-3.56 13.9 13.9 0 0 1 1.86-2.94l.82.95a9.29 9.29 0 0 1-4.52 1.51 3.88 3.88 0 0 1-2.48-.8 4.32 4.32 0 0 1-1.42-2.15 5.91 5.91 0 0 1 .87-4.74 14.4 14.4 0 0 1 3.08-3.47l.57 1a5.55 5.55 0 0 1-4.67-.37 4.67 4.67 0 0 1-1.6-1.76 3.4 3.4 0 0 1-.26-2.38 8.13 8.13 0 0 1 2.51-3.69 19.35 19.35 0 0 1 3.49-2.6z"/></g><path d="M319.54 124.82s8.83-29.79 18.78-20.63c3 2.72 11.85 17.42 8.94 19.27-3.77 2.38-8.63-3.07-11.14-7 0 0-1.58 10.55-9.25 11.65a7.71 7.71 0 0 1-7.33-3.29z" class="D"/><path d="M337.45 103.48a16.31 16.31 0 0 1 3.39 3.3 35 35 0 0 1 2.73 3.9 54.6 54.6 0 0 1 4.34 8.48 9 9 0 0 1 .6 2.45 3.4 3.4 0 0 1-.18 1.43 2.48 2.48 0 0 1-.39.7 2.59 2.59 0 0 1-.59.52 4 4 0 0 1-2.72.53 7.67 7.67 0 0 1-2.44-.9 14.36 14.36 0 0 1-3.7-3.22 32 32 0 0 1-2.83-3.88l1-.23a19.66 19.66 0 0 1-1 3.51 17.08 17.08 0 0 1-1.63 3.22 12.32 12.32 0 0 1-2.39 2.7 9.38 9.38 0 0 1-3.11 1.74 10.68 10.68 0 0 0 2.85-2 13 13 0 0 0 2.06-2.78 17.89 17.89 0 0 0 1.38-3.17 18.93 18.93 0 0 0 .76-3.34l.17-1.4.83 1.17a36.32 36.32 0 0 0 2.84 3.65 14.26 14.26 0 0 0 3.42 2.91c1.23.69 2.77 1.06 3.79.4.95-.5.58-2.19.1-3.58a43.72 43.72 0 0 0-1.8-4.28l-2.07-4.2c-1.54-2.72-3.09-5.5-5.41-7.63z" class="B"/><use xlink:href="#E" class="C"/><use xlink:href="#E" class="F"/><path d="M328.63 162.53c-6.46-12.62-15.14-24.78-16.51-27-.06-.11-.22 0-.15.12 1.45 2.12 9.87 17.2 16.49 27 .08.13.24 0 .17-.12zm-71.75-1.47a17.84 17.84 0 0 1-1.32-1.56l-1.47-1.59-2.86-3.07-5.86-6s-.07 0 0 0l5.49 6.36.13.14-1.14-.77-2.36-1.6s-.1.05-.06.08l2.27 1.7 1.22.78.58.34 2.19 2.27 1.52 1.52c.52.52 1.14.9 1.6 1.45.02.14.19.02.07-.05z" class="B"/><path d="M225.92 140.61c3.06.74 10.6-3.78 14.06-8.15.23-.3.31-3.87.62-8.2.19-2.63.47-5.55.92-8.2l-17.28 1.23a42.81 42.81 0 0 1-.12 10.43 5.57 5.57 0 0 1-.3 1.07v.18c-.74 2.03-2.69 10.48 2.1 11.64z" class="D"/><path d="M223.83 128.79a.63.63 0 0 0-.06.18 10.57 10.57 0 0 0 1.69.38c9.48 1.38 13.73-9.74 14.81-13.2l-16 1.13a43 43 0 0 1-.1 10.45 6.87 6.87 0 0 1-.34 1.06z" class="B"/><path d="M249.19 96.19c.25 6.23-7.18 22.12-12.26 24.76-7.37 3.83-17.26 1.79-20-6.57-2.62-8.11 7.42-28.64 12.9-30.81 8.1-3.21 18.99 3.43 19.36 12.62z" class="D"/><path d="M235.25 99.58a14.29 14.29 0 0 1-1.15-1.06 2.5 2.5 0 0 1-1-1.3.82.82 0 0 1 .51-.85 2 2 0 0 1 1.93.61 2.91 2.91 0 0 1 1.05 1.83.86.86 0 0 1-1.34.77zM224.57 95c.52.13 1 .16 1.55.24a2.56 2.56 0 0 0 1.62-.06.82.82 0 0 0 .35-.92 2 2 0 0 0-1.69-1.13 2.88 2.88 0 0 0-2.09.32.86.86 0 0 0 .26 1.55z" fill="#a6a6a6"/><g class="B"><path d="M229.06 111.86a1.74 1.74 0 0 1-1.19.25 3.17 3.17 0 0 1-1.05-.77h-.07a1.61 1.61 0 0 0 1.13 1.18 1.23 1.23 0 0 0 1.26-.59c.05-.03-.03-.09-.08-.07zm.26-3.73a4 4 0 0 1-3.18.58 5.27 5.27 0 0 1-1.35-.51 1.38 1.38 0 0 1-.24-.14 1 1 0 0 1-.22-.14.29.29 0 0 1-.12-.33h0a.54.54 0 0 1 .05-.11h0v-.09c.34-.85 1-2.08 1-2.08-.37 0-2.22 0-2-.38a60.18 60.18 0 0 1 6.24-10.56c.07-.11.25 0 .18.11-1.56 3.45-3.72 6.61-5.35 10.05a6.8 6.8 0 0 1 2 .22c.1.08-1.26 2.36-1.38 2.76a.16.16 0 0 1 0 0 5.59 5.59 0 0 0 4.34.45c.07.04.13.11.03.17z"/><path d="M225.46 108a4.72 4.72 0 0 0 1.17 2.11 2.15 2.15 0 0 0 1.17.59c1 .15 1.33-.64 1.46-1.39a5.27 5.27 0 0 0 .06-1.21 6.21 6.21 0 0 1-3.86-.1z"/></g><path d="M226.63 110.1a2.15 2.15 0 0 0 1.17.59c1 .15 1.33-.64 1.46-1.39a2.23 2.23 0 0 0-2.63.8z" fill="#ff9bbc"/><path d="M234 102.23a1.8 1.8 0 0 0-.07-.94 1.32 1.32 0 0 0-.74-.71 1.18 1.18 0 0 0-1 .15 2 2 0 0 0-.61.69 4.77 4.77 0 0 0-.22.52 2.48 2.48 0 0 0-.14 1.14 4.12 4.12 0 0 1 .32-.78 5.84 5.84 0 0 1 .41-.64c.31-.41.72-.7 1.09-.54a1 1 0 0 1 .55 1.07 8.45 8.45 0 0 1-.23 1.6 3.76 3.76 0 0 0 .64-1.56zm-10.54-4.83a1.87 1.87 0 0 1 .73-.59 1.29 1.29 0 0 1 1 0 1.17 1.17 0 0 1 .61.84 2 2 0 0 1-.09.92 3.33 3.33 0 0 1-.21.52 2.53 2.53 0 0 1-.73.89 3.48 3.48 0 0 0 .34-.77 5 5 0 0 0 .18-.74c.08-.51 0-1-.36-1.16a1 1 0 0 0-1.16.34 8.14 8.14 0 0 0-1 1.28 3.56 3.56 0 0 1 .69-1.53z" class="B"/><path d="M233.4 93.57a14.77 14.77 0 0 1-1.86-.56c-.61-.26-1.16-.63-1.77-.87a10.72 10.72 0 0 0-3.67-.56c-.11 0-.12.07 0 .07a9.19 9.19 0 0 1 3.79.88 11.47 11.47 0 0 0 3 1.19 11.56 11.56 0 0 1 6.38 3.28 11.63 11.63 0 0 0-5.87-3.43zm.65-1.57a13.69 13.69 0 0 1-1.76-.53c-.58-.25-1.1-.6-1.68-.83a10.1 10.1 0 0 0-3.48-.53c-.1 0-.11.06 0 .07a8.66 8.66 0 0 1 3.59.83 10.81 10.81 0 0 0 2.83 1.13 11 11 0 0 1 6.08 3.07 11 11 0 0 0-5.58-3.21z" opacity=".2"/><path d="M224.89 87.89c4.4 6.1 14.55 2.92 14.55 2.92a6.75 6.75 0 0 0 5 6.33s-2.4 10.28.21 11.19c4 1.41 10-11.6 9.74-14.7s-3.42-5-3.42-5a6.88 6.88 0 0 0-1.29-4.89c-2-3-12.32-3.62-12.32-3.62a9.3 9.3 0 0 0-1.23-4.09 2.6 2.6 0 0 0-3.65-.94 6.08 6.08 0 0 1 .07 2.77c-.57 3.06-2.93 2.2-2-.41a4.29 4.29 0 0 1 1.89-2.36c-.55-2.13-2.25-3.38-3.74-2.87-2.7.93-7.47 10.61-3.81 15.67z" fill="#a6a6a6"/><g class="G"><path d="M230.3 107.12a4.8 4.8 0 0 1-1.46-6.62h0a4.79 4.79 0 1 1 2.54 7.13 4.44 4.44 0 0 1-1.08-.51zm-.92-6.28a4.15 4.15 0 1 0 5.73-1.26 3.94 3.94 0 0 0-.93-.44 4.16 4.16 0 0 0-4.8 1.7zm-8.24 1.98c-1.78-.83-2.33-3.46-1.21-5.85a5.74 5.74 0 0 1 2.33-2.61 3 3 0 0 1 4.63 2.16 5.67 5.67 0 0 1-.49 3.46c-1.06 2.27-3.23 3.53-5 3zm1.43-7.9a5.06 5.06 0 0 0-2.06 2.32c-1 2.07-.56 4.32.9 5s3.44-.45 4.41-2.53a5.09 5.09 0 0 0 .44-3.07 2.56 2.56 0 0 0-1.35-1.93l-.22-.09a2.65 2.65 0 0 0-2.12.3z"/><path d="M228.75 101.07l.58-.27c-.4-.86-1.58-2.31-3.17-1.67l.24.59c1.43-.58 2.31 1.28 2.35 1.35zm18.83 10.13h.64c0-.29-.15-2.93-1.35-3.75s-9.25-3.65-9.59-3.78l-.22.61c2.33.83 8.58 3.11 9.45 3.7s1.04 2.5 1.07 3.22z"/></g><path d="M242.06,108.85s5.27-4.3,7.33-2.27-3,9-6.14,9.26a3,3,0,0,1-3.45-2.67Z" class="D"/><path d="M247.89 108.54c.05 0 0 .08 0 .08-2.24.24-3.82 1.8-5.11 3.52a1.67 1.67 0 0 1 2.53.24.07.07 0 0 1-.08.1 1.86 1.86 0 0 0-2.15.06 9.13 9.13 0 0 0-1.39 1.32c-.15.16-.45 0-.32-.22h0c.71-2.64 3.71-5.64 6.52-5.1z" class="B"/><path d="M223.68,128.47l3.7,10.35,13.16-12.41,3.43,4.28s-13.18,20-13.22,19.08l-3.86-9-6.3,5.88,1.08-15.33Z" class="E"/><path d="M220.69 139.09l.84-7.58c0-.09.16-.13.18 0 .41 2.46-.65 12.11-.73 14.43h0c.26-.26 5.83-5.16 5.88-5.08.85 1.43 3.69 8 3.88 8.54 2.08-3.18 10-14.72 12.49-17.71a.08.08 0 1 1 .14.09c-1.86 3.37-12.41 18.92-12.56 18.87a97.35 97.35 0 0 1-4-9.46c-1 1.08-6.59 6.64-6.59 6.27a79.89 79.89 0 0 1 .47-8.37z" class="B"/><g class="C"><path d="M280.86 259.21l-4.04.75-.9 4.25-.9-4.25-4.03-.75 4.01-.98.92-4.02.92 4.02 4.02.98zM212.14 69.5l-4.04.75-.9 4.25-.9-4.25-4.03-.75 4.01-.98.92-4.02.92 4.02 4.02.98zm-48.4 136.51l-4.04.74-.9 4.25-.9-4.25-4.03-.74 4.01-.98.92-4.02.92 4.02 4.02.98zm114.56-17.13l-4.03.75-.9 4.25-.9-4.25-4.04-.75 4.02-.98.92-4.02.92 4.02 4.01.98zm52.12-16.79l-2.25.41-.51 2.38-.5-2.38-2.25-.41 2.24-.55.51-2.25.52 2.25 2.24.55zm-139.75-7.83l-2.25.42-.5 2.38-.51-2.38-2.25-.42 2.24-.55.52-2.24.51 2.24 2.24.55zm69.86-79.1l-2.26.42-.5 2.37-.5-2.37-2.26-.42 2.25-.55.51-2.24.51 2.24 2.25.55zm52.58 125.37l-2.25.41-.5 2.38-.51-2.38-2.25-.41 2.24-.55.52-2.25.51 2.25 2.24.55zm-18.33 4.57l-2.26.41-.5 2.38-.51-2.38-2.25-.41 2.24-.55.52-2.25.51 2.25 2.25.55zm0-94.65l-2.26.42-.5 2.38-.51-2.38-2.25-.42 2.24-.55.52-2.24.51 2.24 2.25.55zm-97.86-3.4l-2.26.41-.5 2.38-.51-2.38-2.25-.41 2.25-.55.51-2.25.51 2.25 2.25.55zm-55.54-2.46l-2.25.42-.51 2.38-.5-2.38-2.25-.42 2.24-.55.51-2.24.52 2.24 2.24.55zm30.3 111.78l-2.25.42-.5 2.37-.51-2.37-2.25-.42 2.24-.55.52-2.24.51 2.24 2.24.55zm113.8-.65a.65.65 0 0 0 0 1.3.65.65 0 0 0 0-1.3zm9.93-91.65a.66.66 0 0 0 0 1.31.66.66 0 0 0 0-1.31zM180.4 78a.66.66 0 0 0 0 1.31.66.66 0 0 0 0-1.31z"/><path d="M130.53 119.15a.65.65 0 0 0 0 1.3.65.65 0 0 0 0-1.3zm38.4 64.73a.66.66 0 0 0 0 1.31.66.66 0 0 0 0-1.31zm-19.35-11.95a.46.46 0 0 0 0 .92.46.46 0 0 0 0-.92zM185.54 94a.46.46 0 0 0 0 .92.46.46 0 0 0 0-.92zm13.71 64.92a.47.47 0 0 0 0 .93.47.47 0 0 0 0-.93zm-42.64 83.7a.47.47 0 0 0 0 .93.47.47 0 0 0 0-.93z"/><use xlink:href="#F"/><path d="M346.89 160a1.25 1.25 0 0 0 0 2.5 1.25 1.25 0 0 0 0-2.5z"/><use xlink:href="#F" x="-51.13" y="-171.49"/><use xlink:href="#F" x="-67.58" y="-121.57"/><use xlink:href="#F" x="-109.06" y="6.22"/></g><defs ><path id="B" d="M171.15,97.09s12.86,29,15.76,29.8c4.83,1.38,31,.47,40.4.63s18.45,8.48-3.81,16.79-41,12.64-53.11,9.92c-7.52-1.7-28.17-34.3-28.17-34.3Z"/><path id="C" d="M223.77 128.37L199 218.67l-12.67-9.09S207 151.08 213 141.77s10.77-13.4 10.77-13.4z"/><path id="D" d="M238.36 127.73l-1 42.9c0 8.16-1.89 52.72-1.89 52.72l29.35-5.35-7.22-53.19c-1.86-9.98-9.72-34.14-19.24-37.08z"/><path id="E" d="M316.07,128.19s-20.68,21.09-23.7,20.9c-5-.32-35.39-14.73-44.3-17.73s-18.46-1.23-4.38,15.41c15.89,18.77,33.68,35.49,52.07,35.51,9.91,0,40.77-21.54,40.77-21.54Z"/><path id="F" d="M271.58 232.15a1.26 1.26 0 0 0 0 2.51 1.26 1.26 0 0 0 0-2.51z"/></defs></svg>