<svg xmlns="http://www.w3.org/2000/svg" xmlns:xlink="http://www.w3.org/1999/xlink" viewBox="0 0 500 500" xmlns:v="https://vecta.io/nano"><style><![CDATA[.B{fill:#263238}.C{fill:#3d90f6}.D{fill:#fff}.E{fill:#455a64}.F{fill:#d3766a}.G{fill:#ad6359}.H{fill:#f7a9a0}.I{fill:#a6a6a6}.J{fill:#c7c7c7}.K{fill:#37474f}.L{opacity:.3}.M{fill:#ebebeb}.N{fill:#dbdbdb}.O{fill:#ff9bbc}.P{fill:#ad594e}]]></style><path d="M433.65 315.22l-13.12.28-6.66.11-6.7.06h-.44v-.45l-.06-11.22v-.5h.5l13.24.06 13.24.16h.28v.28l-.13 5.66zm0 0l-.14-5.65-.13-5.54.27.28-13.24.16-13.24.06.5-.5-.05 11.19-.45-.44 6.55.05 6.58.12zm-14.77 14.11l-13.12.28-6.66.11-6.7.06h-.4v-.45l-.06-11.19v-.5h.5l13.24.07 13.24.16h.28v.27l-.13 5.66zm0 0l-.14-5.65-.13-5.54.27.28-13.24.16-13.24.06.5-.5v11.19l-.45-.44 6.55.05 6.58.12zm29.55 0l-13.13.28-6.66.11-6.69.06h-.45v-.45l-.05-11.19v-.5h.55l13.24.07 13.24.16h.27v.27l-.13 5.66zm0 0l-.15-5.65-.13-5.54.28.28-13.24.16-13.24.06.49-.5-.05 11.19-.44-.44 6.54.05 6.58.12zm-355.6-14.11l-13.13.28-6.66.11-6.69.06h-.45v-.45L65.85 304v-.5h.51l13.24.06 13.24.16h.27v.28l-.13 5.66zm0 0l-.14-5.65-.14-5.54.28.28-13.24.16-13.24.06.5-.5-.06 11.19-.44-.44 6.54.05 6.58.12zm-14.77 14.11l-13.13.28-6.66.11-6.7.06h-.44v-.45l-.05-11.19v-.5h.5l13.24.07 13.25.16h.27v.27l-.13 5.66zm0 0l-.15-5.65-.13-5.54.28.28-13.25.16-13.24.06.5-.5v11.19l-.45-.44 6.55.05 6.58.12zm237.27-173.59l-13.13.26-6.66.11-6.69.05h-.45v-.45-11.19-.5h.51l13.24.06 13.24.16h.27v.27l-.13 5.65zm0 0l-.15-5.66-.13-5.53.28.27-13.24.16-13.24.07.5-.5-.06 11.19-.44-.45 6.54.06 6.58.11zm-14.78 14.11l-13.12.28-6.66.11h-6.7-.44v-.45l-.06-11.19v-.51h.5l13.24.06 13.24.16h.28v.27l-.13 5.65zm0 0l-.14-5.66-.13-5.53.27.27-13.24.16-13.24.07.5-.5-.05 11.19-.45-.45 6.55.06 6.58.11zm29.55 0l-13.13.28-6.66.11h-6.69-.45v-.45l-.05-11.19v-.51h.5l13.24.06 13.24.16h.27v.27l-.13 5.65zm0 0l-.14-5.66-.13-5.53.27.27-13.24.16-13.24.07.5-.5-.06 11.19-.44-.45 6.54.06 6.58.11zm102.02-96.47l-13.12.28-6.66.11-6.7.06h-.44v-.45l-.06-11.19v-.5h.5l13.24.06 13.24.17h.28v.27l-.14 5.65zm0 0l-.12-5.65-.13-5.54.27.27-13.24.17-13.24.06.5-.5-.05 11.19-.45-.45 6.55.06 6.58.11zm14.77 14.11l-13.12.28-6.66.11-6.7.05H420v-.45l-.06-11.19v-.5h.5l13.24.06 13.24.17h.28v.27l-.13 5.65zm0 0l-.14-5.65-.13-5.54.27.27-13.24.17-13.24.06.5-.5-.05 11.19-.45-.45 6.55.06 6.58.11zM78.06 73.39l-13.13.28-6.66.11-6.7.06h-.44v-.45l-.05-11.19v-.5h.5l13.24.07 13.25.16h.27v.27l-.13 5.66zm0 0l-.15-5.65-.13-5.54.28.27-13.25.17-13.24.06.5-.5v11.19l-.5-.39h6.55l6.58.11zm-19.22 29.3h53.71v65.14H58.84z" class="M"/><path d="M64.98 108.64h41.43v53.25H64.98z" class="D"/><path d="M64.98 108.64h1.62v53.25h-1.62zm47.57-5.95h1.62v65.14h-1.62zm-31.74 18.02h9.77v29.11h-9.77z" class="N"/><path d="M99.22 142.9h-27v-15.26h27zm-26-1h25v-13.26h-25zm27.9 41.63h53.71v65.14h-53.71z" class="M"/><path d="M107.26 189.48h41.43v53.25h-41.43z" class="D"/><path d="M107.26 189.48h1.62v53.25h-1.62zm47.56-5.95h1.62v65.14h-1.62z" class="N"/><path d="M123.96 203.24h8.37v21.16h-8.37z" class="M"/><path d="M139.71,231.19H116.23V215.6h23.48Zm-22.48-1h21.48V216.6H117.23Z" class="N"/><ellipse cx="250" cy="448.8" rx="198.22" ry="19.42" class="M"/><g class="B"><path d="M415.56 280.98h.76v80.1h-.76zm23.79-31.44l-21.73 111.54h-.77l21.76-111.69.74.15z"/><path d="M415.67 361.08h-.75l-6.58-139.78.75-.04 6.47 137.66.11 2.16z"/></g><path d="M430.55 194.66a37.73 37.73 0 0 1-9.27 14.94c-5.71 5.87-11.58 9.06-11.53 9.69.18 1.78 1.91 4.49 1.78 5.08s-1.59 1.18-2.81 1.18-2.68-.59-2.82-1.18 1.6-3.3 1.77-5.08c.13-1.26-23.69-12.86-22.05-35.8.85-11.77 8.29-16.53 14.59-18.45a30.24 30.24 0 0 1 5.37-1.09 28.54 28.54 0 0 1 3.14-.19c3.35 0 21.72.82 23.08 19.73a30.08 30.08 0 0 1-1.25 11.17z" class="C"/><path d="M409.75 219.29c.18 1.78 1.91 4.49 1.78 5.08s-1.59 1.18-2.81 1.18-2.68-.59-2.82-1.18 1.6-3.3 1.77-5.08c.13-1.26-23.69-12.86-22.05-35.8.85-11.77 8.29-16.53 14.59-18.45-5.59 4.79-12.48 14.2-7.5 29.52 4.61 14.15 18.15 18.34 28.57 15-5.71 5.91-11.58 9.1-11.53 9.73z" opacity=".1"/><path d="M424.65 176.66a5.19 5.19 0 1 1-5.19-5.19 5.19 5.19 0 0 1 5.19 5.19z" class="D"/><path d="M460.81 221.28a37.47 37.47 0 0 1-9.27 14.95c-5.7 5.87-11.58 9.06-11.52 9.68.18 1.78 1.91 4.49 1.77 5.08s-1.58 1.18-2.81 1.18-2.68-.59-2.81-1.18 1.59-3.3 1.77-5.08c.12-1.25-23.7-12.85-22.05-35.79.85-11.78 8.28-16.54 14.59-18.45a29.47 29.47 0 0 1 5.37-1.1 27.74 27.74 0 0 1 3.13-.18c3.36 0 21.73.81 23.09 19.73a30.2 30.2 0 0 1-1.26 11.16z" class="J"/><path d="M440 245.91c.18 1.78 1.91 4.49 1.77 5.08s-1.58 1.18-2.81 1.18-2.68-.59-2.81-1.18 1.59-3.3 1.77-5.08c.12-1.25-23.7-12.85-22.05-35.79.85-11.78 8.28-16.54 14.59-18.45-5.6 4.78-12.49 14.19-7.5 29.52 4.6 14.14 18.14 18.34 28.56 15-5.68 5.91-11.52 9.1-11.52 9.72z" class="I"/><path d="M455.65 203.35a5.19 5.19 0 1 1-5.19-5.19 5.19 5.19 0 0 1 5.19 5.19z" class="D"/><path d="M437.76 252.75a37.85 37.85 0 0 1-9.41 15.05c-5.66 5.77-11.42 8.9-11.37 9.52.18 1.78 1.91 4.49 1.78 5.08s-1.59 1.18-2.81 1.18-2.68-.59-2.82-1.18 1.6-3.3 1.77-5.08c.12-1.25-23.7-12.85-22-35.79.86-11.87 8.4-16.61 14.73-18.5a31 31 0 0 1 5.34-1.07 30.42 30.42 0 0 1 3-.17c3.35 0 21.72.82 23.08 19.74a30.1 30.1 0 0 1-1.29 11.22z" class="K"/><path d="M392.85 241.53c.86-11.87 8.4-16.61 14.73-18.5-5.63 4.72-12.77 14.18-7.72 29.71 4.59 14.11 18.08 18.32 28.49 15.06-5.66 5.77-11.42 8.9-11.37 9.52.18 1.78 1.91 4.49 1.78 5.08s-1.59 1.18-2.81 1.18-2.68-.59-2.82-1.18 1.6-3.3 1.77-5.08c.1-1.25-23.7-12.85-22.05-35.79z" class="B"/><path d="M432 234.59a5.19 5.19 0 1 1-5.19-5.19 5.19 5.19 0 0 1 5.19 5.19z" class="D"/><path d="M409.23 342.49h14.28v18.66h-14.28z" class="C"/><g class="B"><path d="M67.87 280.98h.76v80.1h-.76zm23.78-31.44L69.92 361.08h-.77l21.77-111.69.73.15z"/><path d="M67.97 361.08h-.75L60.64 221.3l.76-.04 6.47 137.66.1 2.16z"/></g><path d="M82.85 194.66a37.51 37.51 0 0 1-9.27 14.94c-5.7 5.87-11.58 9.06-11.52 9.69.18 1.78 1.91 4.49 1.77 5.08s-1.58 1.18-2.81 1.18-2.67-.59-2.81-1.18 1.59-3.3 1.77-5.08c.12-1.26-23.7-12.86-22-35.8.8-11.77 8.23-16.49 14.54-18.49a30.24 30.24 0 0 1 5.37-1 28.39 28.39 0 0 1 3.13-.19c3.36 0 21.73.82 23.09 19.73a30.28 30.28 0 0 1-1.26 11.12z" class="J"/><path d="M62.06 219.29c.18 1.78 1.91 4.49 1.77 5.08s-1.58 1.18-2.81 1.18-2.67-.59-2.81-1.18 1.59-3.3 1.77-5.08c.12-1.26-23.7-12.86-22-35.8.8-11.77 8.23-16.49 14.54-18.49-5.6 4.79-12.49 14.2-7.5 29.52 4.6 14.15 18.14 18.34 28.56 15-5.7 5.95-11.58 9.14-11.52 9.77z" class="I"/><path d="M77,176.66a5.19,5.19,0,1,1-5.19-5.19A5.19,5.19,0,0,1,77,176.66Z" class="D"/><path d="M113.12 221.28a37.59 37.59 0 0 1-9.27 14.95c-5.71 5.87-11.58 9.06-11.52 9.68.17 1.78 1.91 4.49 1.77 5.08s-1.59 1.18-2.81 1.18-2.68-.59-2.82-1.18 1.6-3.3 1.77-5.08c.13-1.25-23.69-12.85-22-35.79.84-11.78 8.28-16.54 14.58-18.45a29.64 29.64 0 0 1 5.37-1.1 28 28 0 0 1 3.14-.18c3.35 0 21.73.81 23.09 19.73a30.2 30.2 0 0 1-1.3 11.16z" class="K"/><path d="M92.33 245.91c.17 1.78 1.91 4.49 1.77 5.08s-1.59 1.18-2.81 1.18-2.68-.59-2.82-1.18 1.6-3.3 1.77-5.08c.13-1.25-23.69-12.85-22-35.79.84-11.78 8.28-16.54 14.58-18.45-5.59 4.78-12.48 14.19-7.5 29.52 4.61 14.14 18.15 18.34 28.57 15-5.75 5.91-11.62 9.1-11.56 9.72z" class="B"/><path d="M108 203.35a5.2 5.2 0 1 1-5.19-5.19 5.19 5.19 0 0 1 5.19 5.19z" class="D"/><path d="M90.06 252.75a37.63 37.63 0 0 1-9.41 15.05c-5.66 5.77-11.42 8.9-11.36 9.52.17 1.78 1.91 4.49 1.77 5.08s-1.58 1.18-2.81 1.18-2.68-.59-2.81-1.18 1.59-3.3 1.77-5.08c.12-1.25-23.7-12.85-22-35.79.85-11.87 8.4-16.61 14.73-18.5a31 31 0 0 1 5.29-1.03 30.42 30.42 0 0 1 3-.17c3.36 0 21.73.82 23.09 19.74a29.9 29.9 0 0 1-1.26 11.18z" class="C"/><path d="M45.16 241.53c.85-11.87 8.4-16.61 14.73-18.5-5.63 4.72-12.77 14.18-7.72 29.71 4.59 14.11 18.07 18.32 28.48 15.06-5.66 5.77-11.42 8.9-11.36 9.52.17 1.78 1.91 4.49 1.77 5.08s-1.58 1.18-2.81 1.18-2.68-.59-2.81-1.18 1.59-3.3 1.77-5.08c.12-1.25-23.7-12.85-22.05-35.79z" opacity=".1"/><path d="M84.28 234.59a5.19 5.19 0 1 1-5.19-5.19 5.2 5.2 0 0 1 5.19 5.19z" class="D"/><path d="M61.54 342.49h14.28v18.66H61.54z" class="C"/><path d="M43.94 361.07l51.51-.24 51.52-.09 103.03-.17 103.03.17 51.52.09 51.51.24-51.51.25-51.52.08-103.03.17-103.03-.17-51.52-.09-51.51-.24z" class="B"/><path d="M417.14,94.38a541,541,0,0,1-334.28,0Q93,63.15,103.15,31.92a475.24,475.24,0,0,0,293.7,0Q407,63.15,417.14,94.38Z" class="C"/><path d="M154.73 65.05l5.12 1q.79 4.78 1.63 9.58 2.46-4.2 4.85-8.43 2.58.45 5.18.87-3.45 5.79-7 11.56 1.13 4.67 2.32 9.33 6-9.9 11.61-19.91 3 .45 6.1.85-7.71 12.89-16.05 25.54l-5-.81q-1.68-6.15-3.22-12.31-3.58 5.25-7.29 10.44l-4.94-1q-3.4-14.76-6.14-29.49 3 .67 5.95 1.3 1.85 11.35 4.06 22.71 2.7-4 5.32-8-1.3-6.6-2.5-13.23zm50.88 30.17l-.41 4.69Q194.58 99 184 97.64q1.75-13.68 3.49-27.37 9.86 1.26 19.73 2.11l-.41 4.69q-7.12-.63-14.24-1.45l-.77 6.6q6.24.73 12.47 1.29l-.39 4.34q-6.3-.57-12.58-1.3l-.82 7.14q7.52.87 15.13 1.53zm4.25 5.07q1.06-13.77 2.12-27.52l5.64.41-1.5 22.82q7.74.51 15.49.78l-.17 4.7q-10.8-.35-21.58-1.19zm21.91-12.78a13.45 13.45 0 0 1 1.16-5 13.78 13.78 0 0 1 3-4.32 14.74 14.74 0 0 1 4.61-3 15.05 15.05 0 0 1 6.08-1.13 14.17 14.17 0 0 1 6.94 1.67A11.16 11.16 0 0 1 258 80l-4.37 2.89a7 7 0 0 0-1.42-2 7.24 7.24 0 0 0-1.78-1.26 8.86 8.86 0 0 0-2-.69 10.94 10.94 0 0 0-2-.22 8.22 8.22 0 0 0-3.75.78 8 8 0 0 0-2.68 2.16 8.89 8.89 0 0 0-1.67 2.92 10.52 10.52 0 0 0-.63 3.27 9.86 9.86 0 0 0 .56 3.53 8.82 8.82 0 0 0 4.52 5.12 8.28 8.28 0 0 0 3.61.81 10.8 10.8 0 0 0 2.14-.22 8.74 8.74 0 0 0 2.12-.74 7.59 7.59 0 0 0 1.8-1.35 5.86 5.86 0 0 0 1.36-1.93l4.84 2.47a8.3 8.3 0 0 1-2 2.77 13.05 13.05 0 0 1-3 2 16.65 16.65 0 0 1-3.64 1.26 17.41 17.41 0 0 1-3.81.41 14 14 0 0 1-6-1.32 15.06 15.06 0 0 1-4.59-3.36 14.43 14.43 0 0 1-2.89-4.63 13.06 13.06 0 0 1-.95-5.16zm43.79 13.89a14.82 14.82 0 0 1-6.15-.92 14.36 14.36 0 0 1-4.79-3 13.85 13.85 0 0 1-3.13-4.42 13.22 13.22 0 0 1-.17-10.45 14.73 14.73 0 0 1 13-9.18 13.76 13.76 0 0 1 5.82.91 14.82 14.82 0 0 1 7.86 7.2 13.38 13.38 0 0 1 1.44 5 13 13 0 0 1-.69 5.33 13.92 13.92 0 0 1-2.75 4.68 14.56 14.56 0 0 1-4.52 3.38 15.29 15.29 0 0 1-5.92 1.47zm-9.35-13.62a10.3 10.3 0 0 0 .71 3.43 9 9 0 0 0 1.82 2.9 8.33 8.33 0 0 0 6.63 2.55 8.22 8.22 0 0 0 6.39-3.27 9 9 0 0 0 1.51-3.08 10.26 10.26 0 0 0 .35-3.39 10 10 0 0 0-.84-3.41 9.59 9.59 0 0 0-1.89-2.84 8.26 8.26 0 0 0-2.81-1.88 8.5 8.5 0 0 0-3.61-.57 8.28 8.28 0 0 0-3.64 1 8 8 0 0 0-2.61 2.2 9.35 9.35 0 0 0-1.55 3 10.53 10.53 0 0 0-.46 3.36zM320 97.12L317.55 79q-2.88 7.26-6 14.48l-3.19.37q-4.67-6.31-9.14-12.71.9 9.09 1.79 18.18l-6 .55q-1.18-13.74-2.38-27.49l6-.56q5.06 7.38 10.37 14.67 3.56-8.31 6.81-16.68 3-.41 6-.84l4 27.3-5.81.85zm32.37-10.22l.93 4.61q-10.49 2.11-21.05 3.8-2.16-13.62-4.34-27.25 9.81-1.56 19.57-3.53l.93 4.61q-7.05 1.42-14.12 2.63l1.12 6.55q6.19-1.06 12.37-2.28l.84 4.27q-6.22 1.23-12.47 2.3l1.21 7.09q7.53-1.29 15.01-2.8zm3.92-6.61l-3.63-17.11 5.38-1.17q1.92 8.52 3.83 17.06l-5.58 1.22zm2.16 10.15l-1.22-5.74q2.82-.6 5.62-1.23l1.29 5.73-5.69 1.24z" class="D"/><path d="M106.74 40a11.22 11.22 0 0 1-.33 3.78 32.16 32.16 0 0 1-1.1 3.62 34 34 0 0 1-3.31 6.76c.66-2.44 1.53-4.78 2.38-7.12l1.28-3.49a26.63 26.63 0 0 0 1.08-3.55zm1 .82a12 12 0 0 1 1.23 3 20.65 20.65 0 0 1 .61 3.21 18.89 18.89 0 0 1-.41 6.49l-.29-3.22-.29-3.16-.85-6.32zm2.37-.82a23.8 23.8 0 0 0 2.46 2.27 20.48 20.48 0 0 0 2.7 1.85 21.12 21.12 0 0 0 3 1.43c1 .43 2.09.73 3.18 1.1a11 11 0 0 1-3.42-.36 12.54 12.54 0 0 1-6.03-3.46 9.11 9.11 0 0 1-1.89-2.83z" opacity=".1"/><path d="M394.08 40a26.63 26.63 0 0 0 1.08 3.56l1.29 3.44 2.37 7.12a35.08 35.08 0 0 1-3.31-6.77 30.17 30.17 0 0 1-1.09-3.62 11 11 0 0 1-.34-3.73zm-.99.82l-.85 6.34-.29 3.16-.3 3.22a18.89 18.89 0 0 1-.41-6.49 20.65 20.65 0 0 1 .61-3.21 12 12 0 0 1 1.24-3.02zm-2.37-.82a9.31 9.31 0 0 1-1.94 2.84 12.54 12.54 0 0 1-5.94 3.45 10.92 10.92 0 0 1-3.41.36l3.17-1.1a22.24 22.24 0 0 0 5.66-3.28 23.8 23.8 0 0 0 2.46-2.27z" opacity=".1"/><path d="M110.11 40a2.37 2.37 0 1 1-2.37-2.37 2.37 2.37 0 0 1 2.37 2.37zm284.52 0a2.37 2.37 0 1 1-2.37-2.37 2.37 2.37 0 0 1 2.37 2.37zM190 159.25a2.49 2.49 0 0 1-2.08 2.82 2.45 2.45 0 0 1-2.73-2.16 2.51 2.51 0 0 1 2.09-2.82 2.45 2.45 0 0 1 2.72 2.16zm191.12 10.39a2.5 2.5 0 0 1-2.09 2.82 2.44 2.44 0 0 1-2.72-2.16 2.5 2.5 0 0 1 2.08-2.82 2.46 2.46 0 0 1 2.73 2.16z" class="B"/><path d="M326.2 150.07a1.25 1.25 0 0 1-1.05 1.4 1.21 1.21 0 0 1-1.36-1.07 1.25 1.25 0 0 1 1-1.41 1.22 1.22 0 0 1 1.41 1.08zm-152.2 0a1.24 1.24 0 0 1-1 1.4 1.21 1.21 0 0 1-1.36-1.07 1.25 1.25 0 0 1 1-1.41 1.22 1.22 0 0 1 1.36 1.08z" class="C"/><path d="M355.57 70.93a1.25 1.25 0 0 1-1 1.4 1.2 1.2 0 0 1-1.36-1.07 1.24 1.24 0 0 1 1-1.41 1.22 1.22 0 0 1 1.36 1.08zM291.5 229.26a1.24 1.24 0 0 1-1 1.41 1.22 1.22 0 0 1-1.36-1.08 1.25 1.25 0 0 1 1-1.4 1.2 1.2 0 0 1 1.36 1.07zM271.32 52.74a1.25 1.25 0 0 1-1 1.41 1.22 1.22 0 0 1-1.36-1.08 1.25 1.25 0 0 1 1-1.41 1.22 1.22 0 0 1 1.36 1.08z" class="B"/><path d="M135.87 180.93a1.25 1.25 0 0 1-1 1.41 1.22 1.22 0 0 1-1.36-1.08 1.25 1.25 0 0 1 1-1.41 1.22 1.22 0 0 1 1.36 1.08z" class="C"/><path d="M342.67 280a1.24 1.24 0 0 1-1 1.41 1.22 1.22 0 0 1-1.36-1.08 1.25 1.25 0 0 1 1.05-1.41 1.21 1.21 0 0 1 1.31 1.08z" class="E"/><path d="M178.18 258.37a1.25 1.25 0 0 1-1 1.41 1.21 1.21 0 0 1-1.36-1.08 1.24 1.24 0 0 1 1-1.41 1.22 1.22 0 0 1 1.36 1.08zm17.24-48.16a2.49 2.49 0 0 1-2.08 2.82 2.44 2.44 0 0 1-2.73-2.16 2.49 2.49 0 0 1 2.09-2.81 2.43 2.43 0 0 1 2.72 2.15z" class="C"/><path d="M216 80.41a2.51 2.51 0 0 1-2 2.82 2.45 2.45 0 0 1-2.72-2.16 2.49 2.49 0 0 1 2.08-2.82 2.45 2.45 0 0 1 2.64 2.16zm-33 154.36a2.5 2.5 0 0 1-2.09 2.82 2.43 2.43 0 0 1-2.72-2.15 2.49 2.49 0 0 1 2.08-2.82 2.44 2.44 0 0 1 2.73 2.15z" class="E"/><path d="M306.23 61.68a2.48 2.48 0 0 1-2.08 2.81 2.43 2.43 0 0 1-2.72-2.15 2.49 2.49 0 0 1 2.08-2.82 2.43 2.43 0 0 1 2.72 2.16zm-1.98 81.5l3.44-1.19s-2.35-1.25-2.34-5.14 3.21-5.42 1.82-8.93l-3.82 1.08a7.57 7.57 0 0 1 .17 6c-1.01 2.18-1.92 4.83.73 8.18z" class="B"/><path d="M220.1 158.36l-3.39-1.36s1.06 2.5-1.31 5.51-5.79 2.11-6.86 5.75l3.62 1.67a7.33 7.33 0 0 1 3.49-4.73c2.15-1.04 4.48-2.5 4.45-6.84z" class="E"/><path d="M141.72 224.89l-3.38-1.32s1 2.5-1.32 5.51-5.79 2.11-6.85 5.75l3.61 1.67a7.33 7.33 0 0 1 3.49-4.73c2.15-1.09 4.48-2.55 4.45-6.88z" class="B"/><path d="M401.66 218l-3.38-1.31s1.05 2.49-1.32 5.51-5.79 2.11-6.85 5.74l3.61 1.68a7.37 7.37 0 0 1 3.49-4.74c2.15-1.12 4.48-2.58 4.45-6.88z" class="C"/><path d="M155.77 124.74l.49-3.71s-2.12 1.62-5.48-.1-3.27-5.39-6.93-5.66l-.78 4a7 7 0 0 1 5.24 2.48c1.49 1.95 3.38 3.98 7.46 2.99z" class="B"/><path d="M134.7 274.36l.49-3.71s-2.12 1.62-5.48-.1-3.27-5.38-6.93-5.66l-.78 4a7 7 0 0 1 5.24 2.48c1.49 1.95 3.38 3.98 7.46 2.99z" class="C"/><path d="M256.93 264.39l.49-3.71s-2.12 1.62-5.48-.1-3.27-5.38-6.93-5.66l-.78 4a7 7 0 0 1 5.23 2.48c1.54 1.95 3.39 3.98 7.47 2.99z" class="E"/><path d="M402.8 134.15l.49-3.71s-2.11 1.62-5.48-.11-3.27-5.38-6.93-5.65l-.77 4a7 7 0 0 1 5.23 2.48c1.49 1.95 3.38 3.97 7.46 2.99z" class="C"/><path d="M185.72 278.68l.69 3.68s1.5-2.24 5.22-1.72 4.76 4 8.31 3.05l-.51-4.07a6.87 6.87 0 0 1-5.72-.6c-2.01-1.34-4.43-2.63-7.99-.34z" class="E"/><g class="C"><path d="M246.28 202l-3.82-2.14s-3.08 4.82.63 7.25c0-.04-.77-3.17 3.19-5.11z"/><path d="M243.19 212.94l4-1.55s.23-3.56-4.11-4.32c.01 0 2.73 3.22.11 5.87z"/></g><g class="E"><path d="M139.6 51.6l-3.81-2.14s-3.09 4.82.63 7.25c0 0-.77-3.13 3.18-5.11z"/><path d="M136.52 62.58l4-1.55s.23-3.56-4.11-4.32c.01 0 2.73 3.22.11 5.87z"/></g><path d="M271.88 141.43a2.5 2.5 0 0 1 2.09-2.82 2.44 2.44 0 0 1 2.72 2.16 2.51 2.51 0 0 1-2.09 2.82 2.45 2.45 0 0 1-2.72-2.16z" class="B"/><path d="M350.05 189.85a2.49 2.49 0 0 1 2.09-2.81 2.43 2.43 0 0 1 2.72 2.15 2.49 2.49 0 0 1-2.08 2.82 2.45 2.45 0 0 1-2.73-2.16zM299 277.76a2.5 2.5 0 0 1 2.09-2.82 2.44 2.44 0 0 1 2.72 2.16 2.5 2.5 0 0 1-2.08 2.82 2.46 2.46 0 0 1-2.73-2.16zM96.72 236.67a1.24 1.24 0 0 1 1-1.41 1.22 1.22 0 0 1 1.36 1.08 1.26 1.26 0 0 1-1.05 1.41 1.21 1.21 0 0 1-1.31-1.08zm196.18-27a1.25 1.25 0 0 1 1-1.41 1.22 1.22 0 0 1 1.36 1.08 1.25 1.25 0 0 1-1 1.41 1.23 1.23 0 0 1-1.36-1.08z" class="C"/><path d="M260.11 109.19a1.25 1.25 0 0 1 1-1.41 1.22 1.22 0 0 1 1.36 1.08 1.25 1.25 0 0 1-1 1.41 1.22 1.22 0 0 1-1.36-1.08z" class="K"/><path d="M351.6 120.47a2.5 2.5 0 0 1 2.09-2.82 2.44 2.44 0 0 1 2.72 2.16 2.49 2.49 0 0 1-2.09 2.81 2.44 2.44 0 0 1-2.72-2.15z" class="C"/><g class="E"><path d="M102.34 210.25a2.49 2.49 0 0 1 2.08-2.81 2.44 2.44 0 0 1 2.73 2.15 2.5 2.5 0 0 1-2.09 2.82 2.43 2.43 0 0 1-2.72-2.16zm101.36-88.59l-5.78 1.7s-2.75-7.48 3-9.59c-.03 0-1.98 3.98 2.78 7.89z"/><path d="M202.75 105.88l5 3.34s-.73 4.88-6.82 4.55c-.04 0 4.59-3.5 1.82-7.89zm185.72 159.35l-5.77 1.7s-2.75-7.48 3-9.59c-.03 0-1.98 3.98 2.77 7.89z"/><path d="M387.53 249.45l5 3.34s-.73 4.88-6.82 4.55c-.04 0 4.58-3.5 1.82-7.89z"/></g><g class="B"><path d="M349.59 214.93l-.78-6.17s7.54-1.73 8.72 4.44c0 0-3.53-2.57-7.94 1.73z"/><path d="M364.81 216.25l-3.92 4.6s-4.56-1.46-3.36-7.65c0 0 2.68 5.25 7.28 3.05zm-155.18 40.59l-5.78 1.69s-2.75-7.47 3-9.58c-.02.05-1.97 3.98 2.78 7.89zm-.94-15.79l5 3.35s-.73 4.88-6.82 4.55c-.04.05 4.58-3.5 1.82-7.9z"/></g><g class="E"><path d="M313.28 104.32l3.81 2.15s3.09-4.82-.62-7.25c0 0 .76 3.13-3.19 5.1z"/><path d="M316.37 93.35l-4 1.54s-.24 3.56 4.11 4.33c-.01 0-2.74-3.22-.11-5.87z"/></g><g class="C"><path d="M306.43 228.23l.63 4.44s5.58-.34 5.22-4.87c0 0-1.95 2.51-5.85.43z"/><path d="M316.76 224.19l-3.6-2.39s-2.89 1.94-.88 6c0 0 .86-4.2 4.48-3.61z"/></g><path d="M172.19 447.68c2.16.7 65.82-.1 68.14-1.62.9-.56-3.58-60.46-3.58-60.46l-41.14.41 4.39 40.08s-23.41 10.83-25.78 12.77-4.22 8.14-2.03 8.82z" class="F"/><path d="M172.19 447.68c2.15.7 65.83-.1 68.14-1.62.42-.25-.31-13.11-1.21-26.9h-39.89l.76 6.92s-23.41 10.84-25.79 12.78-4.2 8.14-2.01 8.82z" class="D"/><path d="M171.49 448.56c2.27.74 66.56.13 69-1.46.94-.59-.42-21.79-.42-21.91h-39.76v.71s-24.72 11.33-27.23 13.37-3.86 8.55-1.59 9.29z" class="I"/><path d="M171.66 446c10.93-.37 55-.84 65.86-.37.08 0 .08.06 0 .07-10.82.6-54.93.7-65.86.48-.23.03-.23-.18 0-.18zm24-20.65c4.29-.84 9.56-.23 12.87 2.81.13.11 0 .29-.18.25a59.87 59.87 0 0 0-12.67-2.51.28.28 0 0 1-.02-.55zm-3.09 1.9c4.29-.84 9.56-.23 12.87 2.81.13.11 0 .29-.18.25a59.87 59.87 0 0 0-12.67-2.51.28.28 0 0 1-.02-.55zm-3.08 1.9c4.29-.84 9.55-.23 12.87 2.8.13.12 0 .3-.18.26a60.12 60.12 0 0 0-12.67-2.51.28.28 0 0 1-.02-.55z" class="B"/><path d="M195.83 424.39h44.3l-7.14-104.11c.44-2.31 3.06-12.78 6.54-26.46l3.49-13.64L253.14 241l8.47-32.58h-37.54l-9.89 31.92c-9 29.32-21 69.69-22.17 79.5-1.44 11.88 3.82 104.55 3.82 104.55z" class="E"/><g class="B"><path d="M197.89 416.32c6.75-.14 4.81-.2 11.57-.26 3.3 0 25-.22 28.11.29a.07.07 0 0 1 0 .13c-3.09.51-24.81.33-28.11.29l-11.57-.26a.1.1 0 1 1 0-.19zm56.9-202.81l-6.89 24.25-6.71 24.3-6.56 24.34-6.26 24.42L227 317l-.27 1.57c0 .29-.06.61 0 .89l.06.78 5.89 89.48v.27l.5-.31-5.43-89.51-.06-.78v-.69l.27-1.53 1.38-6.12c3.94-16.33 8.33-32.55 12.6-48.8z"/><path d="M225 208.42c2.61 20.16 12 53.66 15.66 81.09l21-81.09z"/></g><path d="M315.45 447.36c-2.17.68-55.65.92-58-.63-.89-.57-1.2-9.59-1.27-20.5v-.34c0-2.25-5.19-40-5.19-40l40.4.82 4.67 39.68v.68s15.09 9.45 17.46 11.43 4.11 8.19 1.93 8.86z" class="F"/><path d="M255.46 419.16l.75 6.73v.34c.07 10.91.38 19.92 1.27 20.5 2.32 1.55 55.8 1.32 58 .64s.41-6.93-1.95-8.89S296.06 427 296.06 427v-.67l-.85-7.21z" class="D"/><path d="M318.1 448.56c-2.28.74-59.79.13-62.24-1.46-.94-.59.42-21.79.41-21.91h39.78v.71s17.94 11.33 20.45 13.37 3.87 8.55 1.6 9.29z" class="I"/><g class="B"><path d="M317.92 446c-10.92-.37-48.25-.84-59.08-.37-.09 0-.09.06 0 .07 10.82.6 48.15.7 59.08.48.23.03.23-.18 0-.18z"/><use xlink:href="#B"/><use xlink:href="#B" x="3.84" y="2.54"/><path d="M300.5 431.61c-5.45-1.51-12.23-1.5-16.65 1.5-.17.11 0 .34.22.31a84.77 84.77 0 0 1 16.37-1.2.31.31 0 0 0 .06-.61z"/></g><path d="M225 208.42l6.08 35.81 5.94 2.77 15.56 177.21 44.51.18-23.51-216z" class="E"/><path d="M254.08 416.29c6.8-.11 4.84-.17 11.64-.21 3.33 0 25.2-.11 28.31.41.06 0 .06.13 0 .14-3.12.5-25 .22-28.31.18l-11.64-.32a.1.1 0 0 1 0-.2zM229.2 243.16a82.87 82.87 0 0 1 12.73 6.66.15.15 0 0 1-.14.26c-4.29-2.08-8.67-4.09-12.85-6.41a.29.29 0 0 1 .26-.51zm1.64-19.88c.7 4.15 1.09 8.37 1.56 12.55l.34 3a5.76 5.76 0 0 0 .72 2.64c.9 1.4 2.52 2.06 4 2.7.17.07.1.34-.08.28a9.63 9.63 0 0 1-4.23-2.24c-1.34-1.41-1.3-3.55-1.5-5.36a116.18 116.18 0 0 1-1-13.56.1.1 0 0 1 .19-.01zm5.05 1.27l.73 9 .32 4.42.21 4.54c0 .1-.16.13-.18 0-.24-1.42-.28-2.9-.4-4.33l-.31-4.54-.52-9.08c-.01-.1.14-.1.15-.01zm2.01 26.89l2.38 20.37 2.48 20.34 5.13 40.68 9.09 79.43-8.15-79.55-5.34-40.65-2.75-20.31-2.84-20.31z" class="B"/><g class="F"><path d="M236.45 160.94c-5.8 7.9-24 31.9-36.07 33.53-7.95 1.08-33.46-.93-39.89-3.45-2.66-1.05 4.76-25.35 7.92-25 5.86.57 28.09 6.12 31.48 5.35 3-.69 12.88-8.07 30.51-17.94 9.05-5.12 11.05.69 6.05 7.51z"/><path d="M162.15,191.36c-2.74.13-15.33-.4-18.8-1.33s-13.27-4.33-12.83-7.06,3.39-2,3.39-2-3.91-2.09-3.22-4.8,5.25-1.36,5.25-1.36-3.86-2.44-3-5.09,5.23-.54,5.23-.54-3.63-2.07-2-4c2-2.25,8.25,2.31,12.16,3.05.89.17,18.24,2.12,18.24,2.12Z"/></g><path d="M137.82 169c4.62 3.34 7.22 4 12.82 4.37.11 0 .12.17 0 .17-5.52.15-8.9-.22-13-4.33-.19-.16-.04-.33.18-.21zm-2.24 5.57c5.09 3.05 7.91 3.8 13.74 4.61a.08.08 0 0 1 0 .15c-5.79-.32-9.16-.76-13.85-4.48-.22-.17-.13-.42.11-.28zm-1.37 6.43c5.15 2.6 8.19 3.55 14 3.61a.11.11 0 0 1 0 .21 19.1 19.1 0 0 1-14-3.66c-.36-.16-.33-.29 0-.16z" class="B"/><path d="M168.41 166s-6-3.92-9-5.06-15.77-1.26-16 1.49c-.23 3.56 7.12 5.08 10.82 5.36 0 0-.56 8.23 4.48 10.46s9.7-12.25 9.7-12.25z" class="F"/><path d="M143.73 163.41c2.12 3.4 7 3.45 10.57 4a.33.33 0 0 1 .26.47c0 3.47 1 8.35 4 10.45a.08.08 0 0 1-.08.14c-3.52-1.81-4.9-6.53-4.65-10.32-3.67-.5-8.56-.76-10.13-4.71-.01-.03.02-.05.03-.03z" class="B"/><path d="M211.84 162.62l15.35 15.67s10-10.57 14.59-21-4.71-9.76-11.52-5.88-18.42 11.21-18.42 11.21z" class="C"/><path d="M241.43 158.07l-.26.54h-1a3.59 3.59 0 0 0-.46 0 9.48 9.48 0 0 0-1.05.15h0a11.22 11.22 0 0 0-1.49.38 20.34 20.34 0 0 0-4.41 2.06l-.29.17-.85.53c-3.48 2.29-6.67 5-10.05 7.51l-1.78 1.27-.28-.29c.61-.43 1.21-.87 1.81-1.32 3.34-2.5 6.5-5.27 10-7.6.25-.16.51-.33.77-.48a2.61 2.61 0 0 1 .28-.17 21 21 0 0 1 4.62-2.19 12.79 12.79 0 0 1 2.61-.57l.52-.05h.46.35zm-5.07 6.52c-.69-.57-1.36-1.16-2-1.78l-.33-.31-1.23-1.21-.37-.38-.61-.62c-2-2.07-3.89-4.24-5.83-6.37l-.2.12 5.8 6.46.56.58a6.29 6.29 0 0 0 .36.38l1.25 1.25.33.31c.66.64 1.34 1.26 2 1.85l1 .8.21-.31-.94-.77zm5.14-7.73c-.63.42-1.24.84-1.85 1.29l-1 .7h0c-1.59 1.19-3.12 2.43-4.67 3.65l-.27.21a92.18 92.18 0 0 1-2.27 1.76 37.79 37.79 0 0 1-10.85 6.11l-.77.23.23.23q.32-.07.63-.18a38 38 0 0 0 11-6.06c.79-.58 1.57-1.17 2.35-1.78l.27-.21 5.4-4.11c.29-.22.58-.42.88-.62l1.15-.79q.18-.42.33-.81c-.16.12-.36.25-.56.38z" class="D"/><g class="B"><path d="M229.23 174.88a150.73 150.73 0 0 1-12.95-13.7c-.06-.05 0-.14.1-.08 1.09 1.27 7.89 7.9 13 13.69.02.07-.08.15-.15.09z"/><path d="M241.78 157.29c-4.55 10.43-14.59 21-14.59 21l-7.07-7.22 18.57-22.26c3.63.01 5.8 2.3 3.09 8.48z"/></g><path d="M216.69 226.26c1 1 61.18 3 61.49 2.63.86-1-6.71-40.27-13-55.29-8.07-19.26-12.69-21-15.45-22.2-3.52-1.5-12.91-1.34-14.47-.71-1.77.71-6.57 9.34-8.93 16.26-4.76 13.89-10.48 58.4-9.64 59.31z" class="C"/><path d="M274.54 207.31c-3 2.12-5.9 4.52-8.9 6.73-.62.46-1.24.91-1.88 1.34l-.67.47a33.41 33.41 0 0 1-8.46 4.25 20.9 20.9 0 0 1-6.23 1 14.19 14.19 0 0 1-6.1-1.5 24.85 24.85 0 0 1-5.23-3.49 62.2 62.2 0 0 1-4.56-4.33c-2.9-3-5.6-6.25-8.5-9.27l-.61-.62-.37-.38c-1-1-2.07-2-3.18-3 0-.14.05-.28.07-.42a44.92 44.92 0 0 1 3.4 3.21c.13.13.25.25.36.38l.56.58c2.88 3.05 5.55 6.29 8.42 9.33s6 6 9.73 7.78a14 14 0 0 0 6 1.43 20.3 20.3 0 0 0 6.14-1 30.09 30.09 0 0 0 7.5-3.75l.61-.4a46.62 46.62 0 0 0 2.74-2c3-2.26 5.9-4.75 9-6.92a4.9 4.9 0 0 1 .16.58zm-1.13-5.1l-6.06-6.64a60.27 60.27 0 0 0-4.56-4.34 24.85 24.85 0 0 0-5.23-3.49 14.19 14.19 0 0 0-6.1-1.5 20.6 20.6 0 0 0-6.23 1 38 38 0 0 0-11 6.06c-.79.58-1.57 1.17-2.35 1.78a2.47 2.47 0 0 0-.27.21c-2.45 1.89-4.86 3.82-7.43 5.51l-.85.53-.29.17a20.5 20.5 0 0 1-3.89 1.88l-.09.6a20.53 20.53 0 0 0 4.35-2.1 2.61 2.61 0 0 0 .28-.17c.26-.15.52-.32.77-.48 2.62-1.73 5-3.7 7.48-5.63l.27-.21a92.18 92.18 0 0 1 2.27-1.76 37.56 37.56 0 0 1 10.85-6.11 20.3 20.3 0 0 1 6.14-1 14 14 0 0 1 6 1.43c3.78 1.81 6.87 4.75 9.73 7.78 2.17 2.3 4.22 4.71 6.34 7.06l-.13-.58zm1.59 7.19a36.41 36.41 0 0 1-10.32 5.72 9.46 9.46 0 0 1-.91.26c-.37.11-.74.2-1.11.28a19.64 19.64 0 0 1-4.12.47 14.12 14.12 0 0 1-6-1.43c-3.77-1.81-6.87-4.75-9.73-7.78s-5.54-6.28-8.42-9.34a64.38 64.38 0 0 0-2.17-2.2c-.11-.11-.22-.22-.33-.31-.66-.65-1.34-1.26-2.05-1.85a24.79 24.79 0 0 0-5.26-3.49 14.52 14.52 0 0 0-3.09-1.08c0 .14-.05.28-.08.43a14.49 14.49 0 0 1 3 1 23.79 23.79 0 0 1 5.21 3.39c.69.57 1.36 1.16 2 1.78l.33.31c.75.72 1.49 1.46 2.21 2.21 2.9 3 5.6 6.23 8.5 9.26a58.22 58.22 0 0 0 4.56 4.33 24.51 24.51 0 0 0 5.23 3.5 14.32 14.32 0 0 0 6.1 1.49 18 18 0 0 0 3.51-.32 8.78 8.78 0 0 0 1-.21c.56-.13 1.12-.28 1.67-.45a36.29 36.29 0 0 0 10.32-5.56zm-12-40.87a4.58 4.58 0 0 1-.64 0 8.38 8.38 0 0 1-2.94-.74 7.68 7.68 0 0 1-.81-.41 4.39 4.39 0 0 1-.47-.27 26.46 26.46 0 0 1-3.72-2.93 33.24 33.24 0 0 0-5-3.88 15.35 15.35 0 0 0-6-2.08 14.2 14.2 0 0 0-1.59-.13h-.8-.35-.46l-.52.05a12.79 12.79 0 0 0-2.61.57 21 21 0 0 0-4.62 2.19 2.61 2.61 0 0 0-.28.17c-.26.15-.52.32-.77.48-1.43.95-2.81 2-4.16 3-.12.29-.23.59-.34.88 1.56-1.21 3.14-2.39 4.78-3.47l.85-.53.29-.17a20.34 20.34 0 0 1 4.41-2.06 11.22 11.22 0 0 1 1.49-.38h0a9.48 9.48 0 0 1 1.05-.15 3.59 3.59 0 0 1 .46 0 15.13 15.13 0 0 1 3.08.12 15.38 15.38 0 0 1 5.79 2 32.62 32.62 0 0 1 4.91 3.81 28.9 28.9 0 0 0 3.45 2.75 4.43 4.43 0 0 0 .46.29 9.94 9.94 0 0 0 1.25.66 9.12 9.12 0 0 0 3.13.78 5.66 5.66 0 0 0 .92 0c-.13-.2-.24-.38-.24-.55zm-1.41-2.93q-1.71.81-3.45 1.5l-.65.24a32.16 32.16 0 0 1-3.73 1.15 27.84 27.84 0 0 1-6.16.82 13.4 13.4 0 0 1-6-1.33 24.34 24.34 0 0 1-5.2-3.39c-.69-.57-1.36-1.16-2-1.78l-.33-.31-1.23-1.21-.37-.38-.61-.62a64.56 64.56 0 0 1-1.79-1.92c-.05.09-.09.18-.14.28l1.7 1.85.56.58a6.29 6.29 0 0 0 .36.38l1.25 1.25.33.31c.66.64 1.34 1.26 2 1.85a24.68 24.68 0 0 0 5.27 3.48 13.72 13.72 0 0 0 6.17 1.42 26.05 26.05 0 0 0 6.27-.82 33.9 33.9 0 0 0 4.07-1.32l.66-.26c1.07-.43 2.12-.91 3.16-1.41a3 3 0 0 0-.19-.36zm-8.27-12.11a20.76 20.76 0 0 0-1.36-.11h-.8-.81a12.88 12.88 0 0 0-3.13.63 23.68 23.68 0 0 0-5.67 2.83c-.63.42-1.24.84-1.85 1.29l-1 .7h0c-1.59 1.19-3.12 2.43-4.67 3.65l-.27.21a92.18 92.18 0 0 1-2.27 1.76 53.94 53.94 0 0 1-5.56 3.73c0 .16-.09.32-.14.48a53.27 53.27 0 0 0 5.95-3.88c.79-.58 1.57-1.17 2.35-1.78l.27-.21 5.4-4.11c.29-.22.58-.42.88-.62l1.15-.79a23.16 23.16 0 0 1 5.55-2.75 12.44 12.44 0 0 1 3-.59 15.89 15.89 0 0 1 3.08.13l.61.1a9.31 9.31 0 0 0-.76-.67z" class="D"/><g class="F"><path d="M252.59 160.14c6 7.75 24.83 31.29 36.91 32.61 8 .87 33.42-1.79 39.78-4.48 2.63-1.11-5.4-25.21-8.55-24.82-5.84.72-27.93 6.84-31.34 6.15-3-.62-13.08-7.74-30.95-17.16-9.18-4.85-11.03 1.01-5.85 7.7z"/><path d="M327.63,188.66c2.74.06,15.32-.79,18.77-1.8s13.15-4.67,12.64-7.39-3.44-1.88-3.44-1.88,3.86-2.19,3.09-4.88-5.27-1.23-5.27-1.23,3.79-2.54,2.84-5.17-5.25-.4-5.25-.4,3.58-2.16,1.88-4c-2-2.2-8.19,2.52-12.08,3.36-.88.19-18.18,2.59-18.18,2.59Z"/></g><path d="M351.38 165.72c-4.53 3.47-7.11 4.2-12.7 4.7-.11 0-.12.18 0 .18 5.52 0 8.89-.45 12.88-4.66.2-.21.04-.38-.18-.22zm2.39 5.48c-5 3.18-7.81 4-13.63 5-.08 0-.06.15 0 .15 5.78-.46 9.14-1 13.73-4.84.23-.21.13-.46-.1-.31zm1.53 6.43c-5.08 2.73-8.1 3.76-13.87 4a.11.11 0 0 0 0 .21c5.9.36 9.68-.89 13.94-4 .29-.26.25-.38-.07-.21z" class="B"/><path d="M320.73 163.45s5.87-4.07 8.85-5.28 15.73-1.67 16 1.08c.33 3.55-7 5.26-10.67 5.63 0 0 .77 8.21-4.22 10.57s-9.96-12-9.96-12z" class="F"/><path d="M345.34 160.25c-2 3.46-6.92 3.63-10.47 4.26a.33.33 0 0 0-.25.48c.09 3.46-.79 8.37-3.73 10.54a.08.08 0 0 0 .08.14c3.48-1.89 4.74-6.65 4.39-10.44 3.66-.58 8.54-1 10-5 .02.02-.01 0-.02.02z" class="B"/><path d="M277.23 161.19l-15 16.06s-10.3-10.31-15.12-20.62 4.46-9.88 11.37-6.17 18.75 10.73 18.75 10.73z" class="C"/><g class="D"><path d="M274 159.27l-5.94 3a2.39 2.39 0 0 0 .34.21l5.91-3zm1.14.67l-.24.24-3.62 3.48a3.33 3.33 0 0 0 .55.1l3.35-3.31.3-.31zm-4.35 4.17l-.43.39a21.12 21.12 0 0 1-5.09 3.51l-.71.26c-.24.09-.49.12-.73.19a6.22 6.22 0 0 1-1.5.06 8.38 8.38 0 0 1-2.94-.74 7.68 7.68 0 0 1-.81-.41l-.66.26a9.94 9.94 0 0 0 1.25.66 9.12 9.12 0 0 0 3.13.78 6.9 6.9 0 0 0 1.63-.09l.79-.2.76-.29a21.53 21.53 0 0 0 5.18-3.65l.66-.61a4.54 4.54 0 0 1-.55-.12z"/><path d="M275.18 163.39l-.74.8-.4.1a6.4 6.4 0 0 1-1.63.08 8.42 8.42 0 0 1-1.11-.14 4.54 4.54 0 0 1-.53-.12 9.73 9.73 0 0 1-1.49-.52 12.88 12.88 0 0 1-1.47-.78l-.34-.22a31.54 31.54 0 0 1-3.35-2.69 31.37 31.37 0 0 0-4.91-3.81 15.15 15.15 0 0 0-5.79-2 15.89 15.89 0 0 0-3.08-.13 12.44 12.44 0 0 0-3 .59l-.9.31-.16-.5.9-.32a12.88 12.88 0 0 1 3.13-.63h.81.8c.53 0 1.06.07 1.59.13a15.53 15.53 0 0 1 6 2.09 32.61 32.61 0 0 1 5 3.88 27.71 27.71 0 0 0 3.53 2.81 2.39 2.39 0 0 0 .34.21 9.19 9.19 0 0 0 1.12.59 8.23 8.23 0 0 0 1.76.57 3.33 3.33 0 0 0 .55.1 4.5 4.5 0 0 0 .63.07 6.22 6.22 0 0 0 1.5-.07l.73-.18z"/><path d="M267.81 162.81l-2.37 1.27-6.88 3.29-.66.26a31 31 0 0 1-3.08 1l-.31-.4a27.67 27.67 0 0 0 2.93-.93 28.9 28.9 0 0 1-3.45-2.75 35.55 35.55 0 0 0-4.44-3.52l-.59-1 .41.23a33.24 33.24 0 0 1 5 3.88 26.46 26.46 0 0 0 3.72 2.93 76.51 76.51 0 0 0 7.17-3.35l2.21-1.16z"/></g><g class="B"><path d="M260.15 173.89a151.51 151.51 0 0 0 12.6-14c.06-.06-.05-.14-.1-.07-1 1.29-7.68 8.09-12.61 14-.04.06.05.18.11.07zm4.57.73l-2.28 2.78-.15.18-.17-.18-5.92-6.6-2.7-3.51a31.17 31.17 0 0 1-2.39-3.74l5.65 6.79 2.86 3.37 2.82 3.39h-.32l2.6-2.48z"/><path d="M251.76 166.6a8.27 8.27 0 0 1 1.64 1 10.22 10.22 0 0 1 1.46 1.2 4.65 4.65 0 0 1-1.75-.8 5.25 5.25 0 0 1-1.35-1.4z"/></g><path d="M237.94 160.4c3.3 1.14 9.64-3.44 12.36-7.4.19-.27 0-3.35.07-7.09 0-2.27.09-4.8.33-7.11.05-.47-14.81 2-14.81 2a37 37 0 0 1 .5 9 4.51 4.51 0 0 1-.2.93 1.1 1.1 0 0 1 0 .16c-.51 1.79-1.45 8.4 1.75 9.51z" class="F"/><path d="M249.8 138.77c-1.06 3.83-4.44 13-12.17 12.38a8.72 8.72 0 0 1-1.47-.23.62.62 0 0 1 0-.16 6.37 6.37 0 0 0 .19-.93 36.67 36.67 0 0 0-.49-9s10.75-1.83 13.94-2.06z" class="B"/><path d="M252.34 120.3c1.75 5.09-.42 20-4 23.49-5.13 5-13.8 5.77-18.11-.45-4.18-6-1-25.49 3-28.65 5.88-4.69 16.51-1.91 19.11 5.61z" class="F"/><g class="B"><path d="M240.49 129.52s.07.06.06.1c-.17 1-.2 2.19.66 2.65 0 0 0 .06 0 0-1.11-.27-1.05-1.82-.72-2.75z"/><path d="M241.53 128.6c1.64.1 1.31 3.37-.21 3.27s-1.16-3.36.21-3.27zm-6.86.33s-.09 0-.09.08c-.07 1-.32 2.17-1.27 2.41v.06c1.13-.04 1.45-1.58 1.36-2.55z"/><path d="M233.87 127.78c-1.62-.29-2.08 3-.58 3.23s1.93-3.01.58-3.23zm9.13-.55c-.44-.16-.81-.37-1.23-.57a2.2 2.2 0 0 1-1.13-.83.68.68 0 0 1 .2-.82 1.7 1.7 0 0 1 1.74 0 2.52 2.52 0 0 1 1.34 1.23.74.74 0 0 1-.92.99zM232.77 126a11.85 11.85 0 0 0 1.33-.2 2.21 2.21 0 0 0 1.32-.47.69.69 0 0 0 .05-.85 1.73 1.73 0 0 0-1.68-.49 2.54 2.54 0 0 0-1.63.8.74.74 0 0 0 .61 1.21zm7.3 13c-.27.22-.55.52-.92.51a2.73 2.73 0 0 1-1.06-.36h-.05a1.35 1.35 0 0 0 1.23.68 1.08 1.08 0 0 0 .89-.81c.02-.02-.06-.02-.09-.02z"/><path d="M239.31 135.87a3.47 3.47 0 0 1-2.46 1.3 4.38 4.38 0 0 1-1.25-.06.86.86 0 0 1-.23-.06l-.22-.05a.26.26 0 0 1-.18-.25h0a.44.44 0 0 1 0-.1h0v-.09l.25-2c-.29.12-1.81.62-1.75.22a52.79 52.79 0 0 1 2.39-10.31c0-.1.21-.06.19.05-.4 3.24-1.36 6.39-1.81 9.65a6 6 0 0 1 1.68-.33c.11 0-.42 2.27-.41 2.62a0 0 0 0 0 0 0 4.81 4.81 0 0 0 3.68-.75c.11.01.19.09.12.16z"/><path d="M236.09 136.81a4.07 4.07 0 0 0 1.58 1.37 1.81 1.81 0 0 0 1.11.14c.83-.17.89-.91.78-1.56a4.42 4.42 0 0 0-.31-1 5.35 5.35 0 0 1-3.16 1.05z"/></g><path d="M237.67 138.18a1.81 1.81 0 0 0 1.11.14c.83-.17.89-.91.78-1.56a1.9 1.9 0 0 0-1.89 1.42z" class="O"/><g class="B"><path d="M254 131.8c-4 .41-6.22-4.29-5.4-8.15 0 0-10.58 1.73-11.34-6.78a8.38 8.38 0 0 1-6.79 4l-1.09 3.18c-1.1-.28-2.36-3.34.23-5.85a10.19 10.19 0 0 1 3.11-6.9 5.81 5.81 0 0 1 6.22-1.07 8.81 8.81 0 0 1 6.36-1.77 7.49 7.49 0 0 1 5.65 3.9s5.29.85 6.3 4.56a7.73 7.73 0 0 1-.85 6.27s1.37 1.43.8 4.64c-.34 2.09-1.97 3.85-3.2 3.97z"/><path d="M237.5 116.1a9.62 9.62 0 0 0 0 2.08 8.59 8.59 0 0 0 .44 2 5.41 5.41 0 0 0 2.56 3 8.61 8.61 0 0 0 3.94.87c.69-.05 1.39 0 2.08-.12l2.07-.27-2 .51c-.64.17-1.4.17-2.1.26a8.71 8.71 0 0 1-4.19-.81 5.65 5.65 0 0 1-2.67-3.3 8.47 8.47 0 0 1-.13-4.22zm-5.33 5.1a11.07 11.07 0 0 0 3.17-1.84 6.65 6.65 0 0 0 1.21-1.33 8.73 8.73 0 0 0 .84-1.64 4.58 4.58 0 0 1-.52 1.83 5 5 0 0 1-1.21 1.52 6.27 6.27 0 0 1-1.64 1 5.91 5.91 0 0 1-1.85.46z"/></g><path d="M249.6,132.53s3.28-4.87,5.49-3.7-.22,8.17-2.76,9.17a2.62,2.62,0,0,1-3.52-1.35Z" class="F"/><g class="B"><path d="M254.34 130.82a0 0 0 0 1 0 .07c-1.79.76-2.7 2.44-3.34 4.17a1.44 1.44 0 0 1 2.15-.42v.09a1.6 1.6 0 0 0-1.75.59 7.6 7.6 0 0 0-.83 1.44c-.08.16-.37.08-.31-.1h0c-.1-2.34 1.63-5.57 4.08-5.84zm101.48 40.89c-1.74 9-2.3 20.09-8.1 27.62-4.55 5.89-11.83 8.85-19 10.16-15.67 2.87-35.7-1.07-42.26-17.52-2.61-6.57-.48-18.43 7.12-21.14 3.9-1.38 8-.92 12.1-1a16.75 16.75 0 0 0 13.12-6.23c6.73-8 7.43-14.94 10.67-24.6a7.24 7.24 0 0 1 3.64-4.61A19.39 19.39 0 0 1 346 133c4.26 1.51 7.49 6.55 10.28 9.87s3.75 6.4 3 10.76l-3.46 18.08z"/><path d="M355.91 176.17l2.9-25.07s-.08-.07-.08 0l-2.94 20.57c-.89 6.87-1.31 13.7-2.79 20.33-3.27 14.89-20 17.27-32.4 13.52-.56-.17-.77.75-.19.91 11 2.95 25.16 2.33 31.39-8.92 3.43-6.15 3.25-14.51 4.11-21.34zm-25.5-37.82a.13.13 0 0 0-.25 0c-2.32 8.06-4.28 17.68-10.63 23.67a21.22 21.22 0 0 1-11.31 5.54c-3.36.51-6.64-.16-10-.29-13.11-.55-17.28 16.33-9.76 25.1.15.18.48-.08.33-.27-5.18-6.64-5.07-16.42 1.78-22 5.5-4.46 13.13-.79 19.55-2.37 13.32-3.3 17.7-17.48 20.29-29.38z"/></g><g class="G"><path d="M344 177.74c15 19.72 27.07 42 24.46 49.16-3.5 9.57-21.14 26-31.08 33.67-2.92 2.26-20-20.83-16.9-23.25l23.8-18.1c.58-.84-5.88-28.6-7.59-35.19-2.8-11.03.7-15.03 7.31-6.29z"/><path d="M321.91 271.33c5.83-1.92 16.21-10.52 17.92-13.56s-12.33-21.17-15.9-21.17-22.7 8-26.12 13.25 18.06 23.48 24.1 21.48z"/><path d="M304.69 242.83c3.17.72.5 4 .5 4s5-3.86 8-1.85-.5 5.85-.73 6.13c.26-.2 4.94-3.62 7.73-1.29s-1.16 5.75-1.42 6c.31-.11 4.45-1.52 6.16.73 2.94 3.87-7.54 7.76-9 11.4l6 3.36s-9.89 3.9-14.69 1.62a3.4 3.4 0 0 1-1.91-3.81s-3.05 1.61-5.3-.15c-1.16-.91-.73-3.57-.73-3.57a4.25 4.25 0 0 1-4.4-.5c-1.52-1.35-.86-3.8-.86-3.8s-2.92 0-4-1.86c-2.3-3.77 7.86-17.96 14.65-16.41z"/></g><g class="B"><path d="M294.07 260.71c0 .05-.11 0-.08 0a30.3 30.3 0 0 1 11.32-14c.17-.1.41.12.25.27a61.93 61.93 0 0 0-11.49 13.73zm5.13 4.76c0 .06-.13 0-.1-.06a28.36 28.36 0 0 1 13.3-14.5c.22-.1.51 0 .27.16-3.99 2.28-10.59 9.55-13.47 14.4zm20.04-9.69c-5.85 3.08-10.14 7.72-13.85 13.12-.05.07-.14 0-.12-.07 1.1-3.14 3.82-6.34 6.15-8.64a17.49 17.49 0 0 1 7.72-4.61c.11-.04.23.14.1.2z"/><path d="M305.19 246.88a19.33 19.33 0 0 1 3.23-1.66 6.63 6.63 0 0 1 3.44-.55 2.18 2.18 0 0 1 1.36.79 3.27 3.27 0 0 1 .64 1.48 3.94 3.94 0 0 1-1.08 3l-1.77 2 2.35-1.26a11.07 11.07 0 0 1 3.34-1.17 3.93 3.93 0 0 1 3.13.61 2.24 2.24 0 0 1 .74 2.71 6.76 6.76 0 0 1-2.14 2.61l-2.49 2 3-1a10.07 10.07 0 0 1 2.56-.54 4.23 4.23 0 0 1 2.4.43 2 2 0 0 1 1 1.85 4.4 4.4 0 0 1-1.15 2.2 35 35 0 0 1-4.05 3.7l-2.1 1.82a6.6 6.6 0 0 0-1.73 2.17 7.3 7.3 0 0 1 1.9-2l2.22-1.64a30.33 30.33 0 0 0 4.33-3.56 5.19 5.19 0 0 0 1.46-2.6 2.83 2.83 0 0 0-1.4-2.79 5.14 5.14 0 0 0-3-.61 11.22 11.22 0 0 0-2.86.55l.49.93a7.86 7.86 0 0 0 2.56-3.07 3.24 3.24 0 0 0 .13-2.18 3.6 3.6 0 0 0-1.24-1.76 4.92 4.92 0 0 0-4-.77 11.72 11.72 0 0 0-3.65 1.34l.59.74a4.64 4.64 0 0 0 1.14-3.75 4 4 0 0 0-.88-1.8 2.9 2.9 0 0 0-1.78-.93 6.78 6.78 0 0 0-3.65.83 16.15 16.15 0 0 0-3.04 1.88z"/></g><path d="M320.43 237.39s-25.95-2.23-21.85 8.34c1.22 3.14 10 14.58 12.3 12.87 3-2.21.25-7.67-2-10.82 0 0 8.72 2 11.93-3.66a6.44 6.44 0 0 0-.38-6.73z" class="G"/><path d="M298.3 244.83a13.37 13.37 0 0 0 1.54 3.66 28.07 28.07 0 0 0 2.2 3.32 45.28 45.28 0 0 0 5.29 6 7.43 7.43 0 0 0 1.73 1.22 2.63 2.63 0 0 0 1.17.3 1.78 1.78 0 0 0 .66-.09 2.33 2.33 0 0 0 .59-.3 3.36 3.36 0 0 0 1.24-2 6.35 6.35 0 0 0 0-2.17 11.92 11.92 0 0 0-1.38-3.87 26.45 26.45 0 0 0-2.16-3.4l-.49.72a15.81 15.81 0 0 0 3.05.28 14.48 14.48 0 0 0 3-.28 10.4 10.4 0 0 0 2.84-1 7.74 7.74 0 0 0 2.31-1.9 9 9 0 0 1-2.45 1.61 10.45 10.45 0 0 1-2.8.75 14 14 0 0 1-2.89.11 15.56 15.56 0 0 1-2.84-.43l-1.15-.29.66 1a28.9 28.9 0 0 1 2 3.33 11.84 11.84 0 0 1 1.22 3.56c.16 1.17 0 2.49-.84 3.08s-1.89-.22-2.83-1-1.88-1.77-2.79-2.71l-2.64-2.91a25.09 25.09 0 0 1-4.24-6.59z" class="B"/><path d="M323 233.33l19 26.3a18.81 18.81 0 0 0 8.7-5.42c3.5-4.09 18.24-20 19-28.48s-13.36-33.09-22-45-14.49-10.48-11.27 4.74 7.13 32.48 6.67 33-14.51 7.94-17.05 10.14a9 9 0 0 0-3.05 4.72z" class="I"/><path d="M344.91 203.74a7.91 7.91 0 0 0-2.11-.49 7.17 7.17 0 0 0 1.91 1 7.89 7.89 0 0 0 2.12.49 7.52 7.52 0 0 0-1.92-1zm3 46.87a7.53 7.53 0 0 0-2.11-.48 7.79 7.79 0 0 0 1.91 1 7.52 7.52 0 0 0 2.12.48 7.85 7.85 0 0 0-1.94-1zm6.8-20.26a7.52 7.52 0 0 0-2.12-.48 7.52 7.52 0 0 0 1.92 1 7.89 7.89 0 0 0 2.12.49 7.73 7.73 0 0 0-1.94-1.01zm-20.16 0a7.53 7.53 0 0 0-2.11-.48 7.47 7.47 0 0 0 1.91 1 7.89 7.89 0 0 0 2.12.49 7.56 7.56 0 0 0-1.94-1.01zm10.28-8.56a7.37 7.37 0 0 0-.48 2.11 8.34 8.34 0 0 0 1.49-4 7.85 7.85 0 0 0-1.03 1.89zm9.46-24.53a7.52 7.52 0 0 0-.48 2.12 7.85 7.85 0 0 0 1-1.92 7.53 7.53 0 0 0 .48-2.11 7.79 7.79 0 0 0-1.02 1.91zm-14.25-24h0a7.59 7.59 0 0 0-1.84 1.16 7.64 7.64 0 0 0 2.08-.65 3.6 3.6 0 0 0 .39-.2 4.48 4.48 0 0 0-.67-.33zm21.49 48.35a7.55 7.55 0 0 0-1.84 1.15 7.45 7.45 0 0 0 2.07-.64 7.55 7.55 0 0 0 1.84-1.15 7.67 7.67 0 0 0-2.09.62zm-24.75 22.77a7.93 7.93 0 0 0-1.35.77l1.15-.08.44-.19a7.75 7.75 0 0 0 1.84-1.15 7.75 7.75 0 0 0-2.1.63zm3.22-50.63a8.14 8.14 0 0 0-1.64 1l-.2.16h.23a8.45 8.45 0 0 0 3.68-1.75 7.67 7.67 0 0 0-2.07.59zm6.44 43.61a7.59 7.59 0 0 0-1.16-1.84 7.57 7.57 0 0 0 .65 2.07 7.26 7.26 0 0 0 1.15 1.84 7.67 7.67 0 0 0-.63-2.07zm15.43 3.34a7.69 7.69 0 0 0-1.15-1.83 7.67 7.67 0 0 0 .64 2.07c0 .09.09.18.14.27l.38-.5zm-7.36-29.2a8 8 0 0 0-1.15-1.83 7.67 7.67 0 0 0 .64 2.07 7.55 7.55 0 0 0 1.15 1.84 7.63 7.63 0 0 0-.63-2.08zm-7.44-26.83a7.55 7.55 0 0 0-1.15-1.84 7.45 7.45 0 0 0 .64 2.07 7.87 7.87 0 0 0 1.15 1.84 7.33 7.33 0 0 0-.63-2.07zm.71 69.66l-5.1-7.76c-1.48-2.19-11.28-16.61-13.09-18.37 0 0-.13 0-.11.08 1 2.31 11.11 16.52 12.65 18.68l5.5 7.48c.06.08.21-.02.15-.11z" class="J"/><path d="M277.63 459.7c2.15.69 63.55-.1 65.87-1.62.89-.56 1.3-9.51 1.48-20.35v-.34l.07-6.86v-1l-.16-31.85-41.07.41 1.23 31.55.05 1.25.25 6.54v.67S282 449 279.64 450.89s-4.17 8.11-2.01 8.81z" class="G"/><path d="M296.08 442.34c.16 0 .24-.1.25-.14a2.28 2.28 0 0 0-.25.14zm-18.45 17.35c2.15.7 63.55-.09 65.87-1.61.79-.5 1.2-7.63 1.41-16.81-11.25 2.34-54.85 11.16-56.05 7.44-.46-1.47 3.26-4 5.62-5.43-6.44 3.07-13.58 6.58-14.84 7.61-2.35 1.93-4.17 8.11-2.01 8.8z" class="C"/><path d="M357.5 220.85l-10.72 111.67c-.35 1.8-.56 11.61-.7 24.21l-.13 77.11h-43.28s1.28-85.94 3.2-101.76L320 220.85z" class="K"/><g class="B"><path d="M304.62 426.3c6.76-.14 4.82-.2 11.57-.26 3.31 0 25-.22 28.12.29.06 0 .06.13 0 .14-3.09.51-24.81.32-28.12.29l-11.57-.26c-.12-.01-.12-.2 0-.2zm33.11-49.13q.06-9.42.14-18.83c0-6.08 0-12.17.32-18.25.59-12.3 3.08-24.39 4.86-36.55s3.25-24.38 4.59-36.6l4.24-41.17c0-.09.16-.09.15 0-2 24.5-4.31 49-7.71 73.35q-1.26 9.09-2.76 18.14c-1 6.11-2 12.22-2.5 18.4s-.55 12.11-.61 18.17q-.09 9.41-.19 18.82l-.4 49.32a.21.21 0 0 1-.42 0l.29-44.8z"/><path d="M366.63 220.85l-19.85 111.67c-.35 1.8-.56 11.61-.7 24.21h0l-20.64-135.88z"/></g><path d="M380 463.19c2.24-.35 56.66-28.8 58-31.19.54-.91-3.14-9.08-7.87-18.82l-.15-.31c-1-2-20.41-34.78-20.41-34.78l-33.47 19.65 18.56 33.09.33.59s-16 20.2-17.21 23-.03 9.13 2.22 8.77z" class="G"/><path d="M380 463.19c2.23-.35 56.65-28.79 58-31.2.47-.76-2.15-6.85-5.87-14.67-7.8 5.91-45.47 34.19-48.22 31.25-.58-.62-.14-2.09.62-3.66-3.3 4.36-6.24 8.37-6.75 9.51-1.2 2.78-.03 9.13 2.22 8.77z" class="C"/><path d="M389.87 429.62l39.66-24.51s-45.88-65.65-46.1-71.48c-.32-8.68-4.48-44.46-8-73.43 0 0 6.62-15.69-5.77-39.39H320s3.33 22.55 9 36.85a66.66 66.66 0 0 1 11 5l5.14 72.66c.43 15.97 44.73 94.3 44.73 94.3z" class="K"/><g class="B"><path d="M387.44 420.46c5.73-3.59 4-2.64 9.79-6.16 2.82-1.73 21.37-13 24.28-14.19a.07.07 0 0 1 .07.12c-2.39 2-21.12 13-24 14.69l-10.06 5.71c-.09.07-.19-.1-.08-.17zm-60.3-163.78a82.08 82.08 0 0 1 12.93 6 .15.15 0 0 1-.12.27c-4.35-1.87-8.8-3.66-13.05-5.77a.29.29 0 0 1 .24-.5zm6.09-7.2l-1-7.82a70.52 70.52 0 0 1 .16-14.67.13.13 0 0 1 .25 0 134.55 134.55 0 0 0 1.18 20.26c.49 3.22 2.11 8.08-1.26 8.57s-5.66-7.63-6.08-9.85a74.38 74.38 0 0 1-.73-19.2c0-.15.28-.18.28 0a142.91 142.91 0 0 0 .73 14.56c.2 2.24 2 14.65 5.9 13.74.65-.15 1-.79 1.09-1.77a15.6 15.6 0 0 0-.52-3.81"/><path d="M332.56 255.4a21 21 0 0 1 .87 2.57 5.87 5.87 0 0 1 .37 2.11.15.15 0 0 1-.27.06 7.48 7.48 0 0 1-.91-2.06l-.88-2.39a.44.44 0 0 1 .82-.29zm31.29-31.46a46.27 46.27 0 0 1 3.9 8.12 50.38 50.38 0 0 1 2.4 8.71c.31 1.48.44 3 .64 4.48s.23 3 .16 4.53a47.93 47.93 0 0 1-.95 9v-.1q2 18.76 3.84 37.53 1.84 18.77 3.71 37.55l.11 1.17.06.59a1.33 1.33 0 0 0 .09.51c.25.58.68 1.33 1.05 2l2.41 4q2.46 4 5 8L396.33 366l20.26 31.84-20.82-31.48-10.24-15.85-5-8-2.44-4.06a18.4 18.4 0 0 1-1.14-2.18 2.14 2.14 0 0 1-.13-.63l-.06-.59-.12-1.17q-1.9-18.78-3.7-37.58-1.8-18.8-3.56-37.58v-.1a46.6 46.6 0 0 0 1-8.88c.09-1.5-.05-3-.09-4.48s-.26-3-.54-4.46a50.44 50.44 0 0 0-2.21-8.7 45.75 45.75 0 0 0-3.69-8.16z"/></g><path d="M376.45 234.36c-1.8.83-59-.34-59-.34s-1.9-1.64-1.21-5.54c.63-3.52 5.94-20.73 5.94-20.73a13.28 13.28 0 0 1-2.06-10.43c2.54-10.09 13.74-23.12 14.76-24a11.54 11.54 0 0 1 12.12-1.55c13.27 6.17 26.69 40.64 30.47 54.28a11.15 11.15 0 0 1-1.02 8.31z" class="I"/><path d="M344.91 203.74a7.91 7.91 0 0 0-2.11-.49 7.17 7.17 0 0 0 1.91 1 7.89 7.89 0 0 0 2.12.49 7.52 7.52 0 0 0-1.92-1zm9.78 26.61a7.52 7.52 0 0 0-2.12-.48 7.52 7.52 0 0 0 1.92 1 7.89 7.89 0 0 0 2.12.49 7.73 7.73 0 0 0-1.92-1.01zm-27.4-39.14a7.82 7.82 0 0 0-1.76-.44.84.84 0 0 0 0 .17 8.94 8.94 0 0 0 1.61.8 7.88 7.88 0 0 0 2.12.48 7.85 7.85 0 0 0-1.97-1.01zM369 212a7.37 7.37 0 0 0-2.11-.48 7.52 7.52 0 0 0 1.92 1 7.74 7.74 0 0 0 2.11.49A7.4 7.4 0 0 0 369 212zm-34.46 18.33a7.53 7.53 0 0 0-2.11-.48 7.47 7.47 0 0 0 1.91 1 7.89 7.89 0 0 0 2.12.49 7.56 7.56 0 0 0-1.93-.99zm26.79-42.5h0l-.61-.25a7.37 7.37 0 0 0-2.11-.48 8.43 8.43 0 0 0 3.09 1.35c-.15-.19-.27-.39-.38-.6zM353 176.42a7.22 7.22 0 0 0-.44 2 7.55 7.55 0 0 0 .86-1.54zm17.48 55.37a7.74 7.74 0 0 0-.49 2.11 7.07 7.07 0 0 0 1-1.92 7.74 7.74 0 0 0 .49-2.11 7.52 7.52 0 0 0-.97 1.92zm-25.7-10a7.37 7.37 0 0 0-.48 2.11 8.34 8.34 0 0 0 1.49-4 7.85 7.85 0 0 0-.98 1.89zm9.46-24.53a7.52 7.52 0 0 0-.48 2.12 7.85 7.85 0 0 0 1-1.92 7.53 7.53 0 0 0 .48-2.11 7.79 7.79 0 0 0-.97 1.91zm-31.63 12.82a7.37 7.37 0 0 0-.48 2.11 7.68 7.68 0 0 0 1-1.92 7.37 7.37 0 0 0 .48-2.11 7.85 7.85 0 0 0-.97 1.92zm8.71-30.32a7.89 7.89 0 0 0-.49 2.12 7.56 7.56 0 0 0 1-1.92 7.88 7.88 0 0 0 .48-2.12 8 8 0 0 0-.96 1.92zm8.66-6.52a7.59 7.59 0 0 0-1.84 1.16 7.64 7.64 0 0 0 2.08-.65 7.39 7.39 0 0 0 1.83-1.15 7.67 7.67 0 0 0-2.05.64zm21.5 48.35a7.55 7.55 0 0 0-1.84 1.15 7.45 7.45 0 0 0 2.07-.64 7.55 7.55 0 0 0 1.84-1.15 7.67 7.67 0 0 0-2.04.64zm-27.39-4.11a7.87 7.87 0 0 0-1.84 1.15 8.4 8.4 0 0 0 3.91-1.79 7.56 7.56 0 0 0-2.04.64zm5.91-23.73a7.87 7.87 0 0 0-1.84 1.15 7.45 7.45 0 0 0 2.07-.64 7.55 7.55 0 0 0 1.84-1.15 7.67 7.67 0 0 0-2.07.64zm27.22 6.42a7.87 7.87 0 0 0-1.15-1.84 8.4 8.4 0 0 0 1.79 3.91 7.56 7.56 0 0 0-.63-2.07zm-44.82 24a7.55 7.55 0 0 0-1.15-1.84 8.4 8.4 0 0 0 1.79 3.91 7.56 7.56 0 0 0-.63-2.1zm9.46-19a7.87 7.87 0 0 0-1.15-1.84 7.45 7.45 0 0 0 .64 2.07 7.55 7.55 0 0 0 1.15 1.84 7.67 7.67 0 0 0-.63-2.15zM375 223a8 8 0 0 0-1.15-1.83 7.67 7.67 0 0 0 .64 2.07 7.55 7.55 0 0 0 1.15 1.84A7.63 7.63 0 0 0 375 223zm-20.5-11.49a8 8 0 0 0-1.15-1.83 7.67 7.67 0 0 0 .64 2.07 7.55 7.55 0 0 0 1.15 1.84 7.63 7.63 0 0 0-.62-2.09zm-7.44-26.83a7.55 7.55 0 0 0-1.15-1.84 7.45 7.45 0 0 0 .64 2.07 7.87 7.87 0 0 0 1.15 1.84 7.33 7.33 0 0 0-.62-2.08z" class="J"/><path d="M341.87 208.07a58.78 58.78 0 0 0-8.6-.14l-4.25.46-2.11.25a9.24 9.24 0 0 1-2.23 0c-.06 0-.08.09 0 .1a14.78 14.78 0 0 0 2.08.34 15.58 15.58 0 0 0 2.05 0l4.33-.35 8.75-.42c.11 0 .11-.23-.02-.24zm6.5 3.76a62.9 62.9 0 0 0-6.91-1.6l-3.53-.43-1.69-.11c-.57-.03-1.25 0-1.87 0-.06 0-.08.1 0 .1.59.06 1.17.21 1.75.31l1.75.27 3.5.55 7 1.13a.11.11 0 0 0 0-.22z" class="B"/><path d="M348.17 154.41s7.69-7.32 2.88-14.45c-4.45-6.62-10.78-7.73-14.73-6.57 0 0 8.92 2.54 11 8s.85 13.02.85 13.02z" class="C"/><path d="M345.55 173.67c-.25 1-5.09 7.12-9.52 6.77-1.44-.12-1.16-8-1.16-8l-.11-.59-1.57-8.23 9.8-5.86 1.41-.78.61 5.13v.41c0 .15.05.31.06.46l.15 1.29c.04.43.07.65.09 1s.06.69.09 1a52.43 52.43 0 0 1 .15 7.4z" class="G"/><path d="M345 162.09a16.85 16.85 0 0 1-10.25 9.74l-1.57-8.23 9.8-5.86 1.41-.78.61 5.13z" class="B"/><path d="M321.9 149.4c-2.88 14.43 5.44 17.78 8.55 18.4 2.82.56 12.51 2.11 16.87-11.94s-1.44-20-7.84-21.58-14.7.72-17.58 15.12z" class="G"/><g class="B"><path d="M327.12 147.54c.35 0 .67 0 1-.08a1.73 1.73 0 0 0 1-.28.53.53 0 0 0 .08-.64 1.31 1.31 0 0 0-1.23-.46 1.86 1.86 0 0 0-1.27.52.55.55 0 0 0 .42.94zm9.61 1.29c-.33-.08-.63-.22-1-.33a1.69 1.69 0 0 1-.91-.53.51.51 0 0 1 .08-.63 1.28 1.28 0 0 1 1.31-.14 1.89 1.89 0 0 1 1.1.82.56.56 0 0 1-.58.81zm-2.29 2.57s.07.06.06.1c-.18 1-.22 2.14.63 2.61 0 0 0 .06 0 0-1.13-.27-1.02-1.81-.69-2.71z"/><path d="M335.48 150.5c1.61.12 1.25 3.33-.24 3.22s-1.11-3.32.24-3.22z"/><path d="M336.09 150.74c.26.21.5.56.84.63s.72-.22 1-.51h.05c-.06.62-.36 1.22-1 1.24s-1-.58-1.06-1.21c-.05-.08.08-.24.17-.15zm-7.48-.43s-.09 0-.09.08c-.07 1-.32 2.13-1.26 2.37v.05c1.12-.04 1.44-1.54 1.35-2.5z"/><path d="M327.83 149.17c-1.59-.28-2.05 2.92-.58 3.18s1.91-2.93.58-3.18z"/><path d="M327.13 149.29c-.28.13-.57.4-.88.38s-.56-.41-.74-.77h-.05c-.11.61 0 1.28.57 1.48s1-.28 1.23-.87c.04-.09-.02-.27-.13-.22zm5.64 10.53c-.26.22-.52.52-.88.53a2.66 2.66 0 0 1-1.06-.32 0 0 0 0 0-.05 0 1.35 1.35 0 0 0 1.24.63 1 1 0 0 0 .84-.83c.02-.02-.05-.04-.09-.01zm-3.71-4.11l-.48 2.16c0 .07.16.12.4.16h0a3.34 3.34 0 0 0 3.39-.84c.06-.06 0-.14-.09-.11a5.07 5.07 0 0 1-3.15.5c0-.2.75-2.48.64-2.5a6 6 0 0 0-1.64.16l2.61-9.05c0-.11-.14-.16-.18-.07a51.64 51.64 0 0 0-3.22 9.63c-.08.39 1.42.04 1.72-.04z"/><path d="M329.08 157.78a4 4 0 0 0 1.37 1.54 1.87 1.87 0 0 0 1.08.27c.82-.07 1-.79 1-1.43a4.12 4.12 0 0 0-.18-1 5.22 5.22 0 0 1-3.27.62z"/></g><path d="M330.45 159.32a1.87 1.87 0 0 0 1.08.27c.82-.07 1-.79 1-1.43a1.89 1.89 0 0 0-2.08 1.16z" class="O"/><path d="M347.27 154.41c-1.58-.15-5.58-4.65-5.47-12.33 0 0 .38 6.91.86 7.93s-2.23-2.53-2.23-8.72a25.12 25.12 0 0 1-6.45 3.09c-3 .73-4.74.64-4.94.43s4.14-1.44 5.35-2.75c0 0-7.89 3.37-11.48 3.54-.42 0-.65-8.53 5-12s14.3.74 16.59 3.09c0 0 2.76.48 5.64 4.67s-1.14 13.2-2.87 13.05z" class="B"/><path d="M344.8,155.51s3.7-4.21,5.65-2.85-1.19,7.72-3.72,8.36a2.49,2.49,0,0,1-3.17-1.7Z" class="G"/><path d="M349.5 154.46v.07a6.29 6.29 0 0 0-3.67 3.55 1.38 1.38 0 0 1 2.09-.14s0 .1-.06.08a1.52 1.52 0 0 0-1.73.35 7.3 7.3 0 0 0-.95 1.26c-.1.14-.37 0-.29-.14h0c.23-2.21 2.26-5.07 4.61-5.03z" class="B"/><g class="G"><path d="M352.21 184.45c18.54-4 47.42-15 49.37-21.52 1.28-4.27.91-24.73-1.31-42.38-.44-3.51-27.52 1.34-26.68 5 1.66 7.26 4.36 27.2 4.13 28.56-.29 1.83-18.42 11.06-29.34 19.29-9.59 7.25-3.26 12.6 3.83 11.05z"/><path d="M400.14,121.75c.28-3,.47-16.93-.37-20.77s-4-14.72-7-14.38-2.33,3.6-2.33,3.6-2.08-4.38-5.07-3.76-1.77,5.65-1.77,5.65-2.46-4.34-5.4-3.51-.86,5.69-.86,5.69-2.06-4.08-4.2-2.37c-2.57,2,2.09,9.13,2.69,13.43.14,1,1.36,20,1.36,20Z"/></g><path d="M377.14 93.85c3.41 5.21 4 8.08 4.11 14.22 0 .12.18.14.19 0 .44-6 .22-9.73-4.05-14.42-.21-.21-.39-.05-.25.2zm6.16-2.17c3.07 5.73 3.74 8.84 4.32 15.26 0 .09.16.08.16 0 0-6.34-.35-10-4.17-15.36-.17-.25-.45-.16-.31.1zm7.13-1.15c2.58 5.76 3.46 9.13 3.22 15.44a.12.12 0 0 0 .23 0c.87-6.4-.2-10.63-3.27-15.52-.2-.31-.34-.28-.18.08z" class="B"/><path d="M377.15 129.28s-5.41-5.63-7.24-8.63-4.54-16.68-1.62-17.44c3.77-1 6.89 6.62 7.94 10.54 0 0 8.72-2.26 12.14 2.7s-11.22 12.83-11.22 12.83z" class="G"/><path d="M369.41 103.29c4.08 1.59 5.12 6.82 6.42 10.55a.36.36 0 0 0 .56.18c3.72-.7 9.17-.61 12 2.19a.09.09 0 0 0 .14-.12c-2.66-3.42-8-3.94-12-2.91-1.27-3.84-2.54-9-7.1-9.93a0 0 0 0 0-.02.04z" class="B"/><path d="M373.3 131.37l28.54-3.25s3.11 3.38 3.27 6.15-.49 28.72-4.26 32.43-36.85 17-49.8 18.37-8.85-8.69-1.25-13.24 26.49-17.78 27.05-18.66-4.21-10.53-4.05-14.36.5-7.44.5-7.44z" class="I"/><path d="M403.16 135.25l-8.36.64c-2.39.23-18.05 1.72-20.23 2.44-.05 0 0 .12 0 .13 2.27.24 17.9-1.61 20.28-1.9 4.86-.58 3.46-.48 8.31-1.13.11-.01.09-.19 0-.18z" class="J"/><g class="B"><path d="M351.65 186a16.3 16.3 0 0 1 3.39-1.58 15.83 15.83 0 0 1 3.61-.86 17.31 17.31 0 0 1-3.39 1.58 16.68 16.68 0 0 1-3.61.86z"/><path d="M353.4,187a5.78,5.78,0,0,1,1.19-1.53,5.55,5.55,0,0,1,.75-.61,3.8,3.8,0,0,1,.87-.46,10.35,10.35,0,0,1-1.28,1.43A8.48,8.48,0,0,1,353.4,187Z"/></g><path d="M347.08 184.67a7.55 7.55 0 0 0-1.15-1.84 7.45 7.45 0 0 0 .64 2.07l.06.12.63.08zm6-8.38a7.37 7.37 0 0 0-.48 2.11 7.85 7.85 0 0 0 1-1.92 7.53 7.53 0 0 0 .48-2.11 7.68 7.68 0 0 0-1.01 1.92zm25.13-27.23a7.55 7.55 0 0 0-1.15-1.84 8.4 8.4 0 0 0 1.79 3.91 7.56 7.56 0 0 0-.65-2.07zm13.06-16.19a7.87 7.87 0 0 0-1.15-1.84 7.45 7.45 0 0 0 .64 2.07 7.55 7.55 0 0 0 1.15 1.84 7.67 7.67 0 0 0-.65-2.07zm9.6 15.86a7.55 7.55 0 0 0-1.15-1.84 8.4 8.4 0 0 0 1.79 3.91 7.56 7.56 0 0 0-.65-2.07zm-6.28 17.36a7.55 7.55 0 0 0-1.15-1.84 8.4 8.4 0 0 0 1.79 3.91 7.56 7.56 0 0 0-.65-2.07zm-32.63.37a7.61 7.61 0 0 0-1.13-1.81.06.06 0 0 0 0 0 7.85 7.85 0 0 0 .63 2 7.55 7.55 0 0 0 1.15 1.84 7.45 7.45 0 0 0-.61-2.03zm2.25 12.39a7.55 7.55 0 0 0-1.84 1.15 8.4 8.4 0 0 0 3.91-1.79 7.56 7.56 0 0 0-2.08.64zm17.57-19.3a7.55 7.55 0 0 0-1.84 1.15 8.4 8.4 0 0 0 3.91-1.79 7.56 7.56 0 0 0-2.08.64zm17.82-1.44a8 8 0 0 0-1.83 1.15 8.31 8.31 0 0 0 3.9-1.79 7.67 7.67 0 0 0-2.08.64zm-18.64-18a8 8 0 0 0-1.84 1.15 8.28 8.28 0 0 0 3.91-1.79 7.67 7.67 0 0 0-2.03.61zm22.48-9.9a7.38 7.38 0 0 0-1.88.6 7.55 7.55 0 0 0-1.84 1.15 7.67 7.67 0 0 0 2.07-.64 7.46 7.46 0 0 0 1.7-1zm-20.6 40.88a7.74 7.74 0 0 0-.49 2.11 7.56 7.56 0 0 0 1-1.92 7.9 7.9 0 0 0 .48-2.11 7.68 7.68 0 0 0-1 1.89zm5.79-25.78a7.52 7.52 0 0 0-.48 2.12 8.34 8.34 0 0 0 1.49-4 7.79 7.79 0 0 0-1.02 1.85zM373 167.7a7.52 7.52 0 0 0-2.12-.48 8.34 8.34 0 0 0 4 1.49 7.79 7.79 0 0 0-1.88-1.01zm18.5-13.8a7.91 7.91 0 0 0-2.11-.49 7.17 7.17 0 0 0 1.91 1 7.89 7.89 0 0 0 2.12.49 7.85 7.85 0 0 0-1.91-1zm-12.69-21.84a7.52 7.52 0 0 0-2.12-.48 7.85 7.85 0 0 0 1.92 1 7.53 7.53 0 0 0 2.11.48 7.79 7.79 0 0 0-1.9-1zm19.39 7.86a7.37 7.37 0 0 0-2.11-.48 7.85 7.85 0 0 0 1.92 1 7.45 7.45 0 0 0 2.11.48 7.68 7.68 0 0 0-1.91-1z" class="J"/><path d="M134.24 174.2l-1.24-7a65 65 0 0 1-1.4-10.12c-.31-5.6-.31-12.4 4.58-16.15a20 20 0 0 1 7.75-3.3c2.86-.65 5.95-1 8.73.11a7.51 7.51 0 0 1 2.87 2 18.71 18.71 0 0 1 5.74 2.12c2.19.84 3.77 3 4.84 5a30.79 30.79 0 0 1 2.66 7.64 18.89 18.89 0 0 1 .6 7.4 39.33 39.33 0 0 1-1.85 6.37 23.15 23.15 0 0 0-1.58 7.83.07.07 0 0 1-.14 0c-.22-4.32 1.84-8.3 2.81-12.42a16.93 16.93 0 0 0 .16-7.12 41.48 41.48 0 0 0-2.24-8 13.74 13.74 0 0 0-4.24-6l.1.08c2.27 1.95 3.39 4.85 4.22 7.64a33.33 33.33 0 0 1 1.58 9.6 31.46 31.46 0 0 1-1.56 8.7 33.55 33.55 0 0 0-1.76 8.69 25.85 25.85 0 0 0 2 9.07 37 37 0 0 1 2.43 8.67 13.05 13.05 0 0 1-1.62 7.84c-2.52 4.4-8.47 8.14-13.42 5.31a16.71 16.71 0 0 1-3.31-2.67 40.74 40.74 0 0 1-3.07-3.37 50.53 50.53 0 0 1-5.36-8 96.69 96.69 0 0 1-7.12-17.83c-.46-1.51-.9-3-1.3-4.55a95.41 95.41 0 0 0 2.65 10.33c2 6.11 4.43 12.28 8.12 17.56a40.53 40.53 0 0 0 3.11 3.92c1.21 1.36 2.54 2.57 3.84 3.84a.08.08 0 0 1-.1.13 33 33 0 0 1-6.4-6.63 45.22 45.22 0 0 1-4.87-8.2 87 87 0 0 1-6.21-18.49z" class="P"/><g class="H"><path d="M159.86 185.4c6.24 12.76 13.74 28.37 20.06 43.57 2.77 6.64 9.6 20.5 11.31 24.09 2.25 4.74-22.9 10.95-24.09 7.55-.78-2.21-4.06-15.18-6.57-26.2-3.23-14.16-8.68-32.81-8.06-46 .55-11.7 4.93-7.96 7.35-3.01z"/><path d="M175.75 270.12c-1.05-1.12-1.65-.58-1.41 2.14s3.47 13.29-.31 14.1-8.14-14.15-8.18-18.71a73.08 73.08 0 0 1 1.48-11.95c1.44 2.75 5.54 9.07 8.42 14.42z"/><path d="M188.29,247.16c4,8,9.18,17.74,8.31,27.54a4.88,4.88,0,0,1-1.23,2.95c-.31,4.4-2.48,5.57-2.48,5.57-1.54,4-3.93,4.91-3.93,4.91s-.42,5.16-3.58,5.43c-3.54.31-2.26-7-4-11.46-4-10.2-12.57-23.57-14-26.4Z"/></g><path d="M184.67 268.46a70.68 70.68 0 0 1 3 9.13 70.52 70.52 0 0 1 1.19 10.46.09.09 0 0 0 .17 0 37.2 37.2 0 0 0-4.24-19.65c-.06-.14-.18-.1-.12.06zm5.8-3.32c.93 3 2.53 8.29 2.32 18.08h.06a33.5 33.5 0 0 0-2.24-18.14c-.07-.17-.2-.14-.14.06zm3.15-1.73a52.25 52.25 0 0 1 1.73 14.22h.06c.53-6.39 0-8.77-1.62-14.29-.05-.19-.22-.13-.17.07zm-19.73-56.75l-19.16 4.86s-3.19-15-3.46-24.29 3.16-12.51 10.65-1.18a197.1 197.1 0 0 1 11.97 20.61z" class="B"/><path d="M170.46 207.54l-15.73 4s-3.19-15-3.46-24.3c-.16-5.21.86-8.52 3.11-8.39l16.08 28.69z" class="K"/><path d="M155 208l7.93-2.59 4-1.18 4.12-1a.08.08 0 0 1 .05.15l-3.88 1.35-4.05 1.23-8.08 2.21c-.09-.06-.19-.17-.09-.17z" class="E"/><path d="M197.72 454.87c-2.19.3-60.89-10.88-62.86-12.73-.75-.69.38-9.34 2-19.75l.06-.32c.34-2.15 7.7-37.85 7.7-37.85l38.4 7.2-8.15 37.44-.13.64s20.55 14.33 22.5 16.59 2.66 8.49.48 8.78z" class="H"/><path d="M197.72 454.87c-2.19.29-60.89-10.88-62.86-12.73-.76-.69.38-9.34 2-19.75l.06-.32c.06-.41.51-2.65 1-4.94l38 7-1 4.76-.13.64s20.55 14.33 22.5 16.58 2.6 8.47.43 8.76z" class="D"/><path d="M198.27 455.19c-2.22.3-62.08-10.94-64.09-12.81-.77-.71.36-9.52 2-20.13l38.61 7.13s21 14.56 23 16.85 2.71 8.65.48 8.96z" class="C"/><path d="M197.87 452.63c-10-2.13-50.48-9.78-60.52-11.13-.08 0-.09 0 0 .06 9.85 2.33 50.4 9.66 60.49 11.24.21.03.24-.12.03-.17zm-3.51-9.28a8.21 8.21 0 0 0-6.47 1.33 7.93 7.93 0 0 0-3.25 4.93c0 .06.1.09.12 0a9.5 9.5 0 0 1 9.57-6.16c.08.04.11-.08.03-.1zm-15.83-12.24c-4-.81-8.93-.26-12.05 2.55-.12.11 0 .28.17.24a56.8 56.8 0 0 1 11.85-2.28.26.26 0 0 0 .03-.51zm2.87 1.79c-4-.81-8.93-.26-12 2.55-.12.11 0 .28.17.24a56.68 56.68 0 0 1 11.85-2.28.26.26 0 0 0-.02-.51zm2.87 1.8c-4-.81-8.93-.27-12 2.54-.12.11 0 .28.17.24a56.68 56.68 0 0 1 11.85-2.28.25.25 0 0 0-.02-.5zm2.88 1.79c-4-.81-8.93-.27-12 2.55-.13.1 0 .27.16.24a56.82 56.82 0 0 1 11.81-2.28.255.255 0 0 0 .03-.51z" class="B"/><path d="M141.7 432.45c-4.51-.84-5.81 6.17-1.3 7s5.82-6.17 1.3-7z" class="D"/><g class="B"><path d="M184.88 421.21c-1.72-2.07-4.59-.9-6.17.61a21.57 21.57 0 0 0-5.58 9.59.11.11 0 0 0 .11.14.5.5 0 0 0 .66.46c3.23-1.44 6.86-2.58 9.55-5 1.55-1.37 3.05-3.84 1.43-5.8zm-6.53 7.61c-1.57.75-3.17 1.41-4.72 2.22a63.94 63.94 0 0 1 3.39-5.53 24 24 0 0 1 2-2.43c1.12-1.16 5.7-3.78 5.28.67-.3 2.45-4.08 4.18-5.95 5.07z"/><path d="M162.87 431c3.4 1.2 7.19.88 10.73 1a.5.5 0 0 0 .44-.67.11.11 0 0 0 0-.17 21.47 21.47 0 0 0-8.79-6.77c-2-.8-5.13-.79-5.94 1.77s1.58 4.17 3.56 4.84zm-2-2.74c-2.07-3.95 3.15-3.26 4.63-2.61a22.25 22.25 0 0 1 2.75 1.51 63.09 63.09 0 0 1 5.22 3.84c-1.74-.16-3.47-.18-5.21-.27-2.06-.1-6.26-.27-7.38-2.45z"/></g><use xlink:href="#C" class="C"/><use xlink:href="#C" class="L"/><g class="B"><path d="M177.4 413.37c-7.54-1.87-35.05-6.35-38.09-6.35-.07 0-.09.11 0 .13 2.89 1 26.55 5.18 38.09 6.41a.1.1 0 0 0 0-.19zm-42.53-177.13l2.12 8 2 8 3.87 15.9 7.34 32.23q1.76 8 3.46 16l3.34 16.07a27.48 27.48 0 0 1 .48 7.68 77 77 0 0 1-1.4 7.81q-1.67 8.08-3.32 16.18-3.34 16.35-6.85 32.65l-.92 4c0 .08-.15.05-.14 0 1.91-10.83 4.2-21.61 6.37-32.39q1.62-8 3.25-16l1.71-8.36a28.61 28.61 0 0 0 .63-8 70.5 70.5 0 0 0-1.4-7.87q-.82-4-1.66-7.93-1.68-8-3.43-16-3.49-16.07-7.2-32.09-3.71-16.02-7.45-31.86l-.89-3.94a.06.06 0 0 1 .09-.08z"/><path d="M126.93 227.73l18.86 94.06 14.69-92.67z"/></g><path d="M159.68 463.14c-2.13.58-61.78-3-64-4.58-.84-.58-.82-9.31-.5-19.85v-.33c.06-2.17 2.8-38.52 2.8-38.52l39 2.23-3.29 38.17v.65s22.22 11.59 24.44 13.58 3.67 8.08 1.55 8.65z" class="H"/><path d="M159.68 463.14c-2.13.57-61.78-3-64-4.58-.84-.59-.82-9.31-.5-19.85v-.33c0-.41.17-2.68.33-5l38.6 2-.42 4.85v.65s22.22 11.58 24.44 13.57 3.67 8.12 1.55 8.69z" class="D"/><path d="M160.27 463.38c-2.16.59-63-2.9-65.21-4.5-.85-.6-.86-9.48-.56-20.22l39.21 2.14s22.68 11.75 24.95 13.76 3.78 8.24 1.61 8.82z" class="C"/><path d="M159.54 460.9c-10.18-.83-51.31-3.24-61.44-3.3-.08 0-.09.06 0 .07 10.07 1.05 51.22 3.12 61.43 3.4.22 0 .22-.15.01-.17zm-4.67-8.75a8.21 8.21 0 0 0-6.24 2.14 7.92 7.92 0 0 0-2.63 5.31c0 .06.11.07.12 0a9.47 9.47 0 0 1 8.7-7.33.07.07 0 0 0 .05-.12zM137.61 442c-4.08-.29-8.89.87-11.62 4.06-.11.13.07.28.2.22a56.6 56.6 0 0 1 11.46-3.78.251.251 0 0 0-.04-.5zm3.08 1.45c-4.08-.3-8.89.87-11.62 4.06-.11.13.07.28.19.22a56.89 56.89 0 0 1 11.47-3.73.276.276 0 0 0-.04-.55zm3.07 1.4c-4.07-.29-8.89.88-11.61 4.07-.11.13.07.27.19.22a56.27 56.27 0 0 1 11.47-3.78.26.26 0 0 0-.05-.51zm3.08 1.41c-4.07-.29-8.89.88-11.61 4.07-.11.12.07.27.19.22a56.39 56.39 0 0 1 11.46-3.78.26.26 0 0 0-.04-.51z" class="B"/><path d="M101.25 448.07c-4.58-.25-5 6.87-.39 7.12s4.98-6.87.39-7.12z" class="D"/><g class="B"><path d="M142.64 431.4c-2-1.83-4.66-.3-6 1.4a21.44 21.44 0 0 0-4.35 10.2.1.1 0 0 0 .12.12.51.51 0 0 0 .72.38c3-1.85 6.48-3.44 8.84-6.16 1.38-1.56 2.53-4.21.67-5.94zm-5.5 8.39c-1.47.94-3 1.8-4.4 2.8.85-2 1.61-4 2.65-5.91A22.81 22.81 0 0 1 137 434c1-1.3 5.16-4.48 5.31 0 .13 2.46-3.43 4.66-5.17 5.79z"/><path d="M122.07 444c3.52.75 7.24-.05 10.77-.39a.5.5 0 0 0 .34-.73.1.1 0 0 0 0-.17 21.5 21.5 0 0 0-9.59-5.58c-2.12-.54-5.19-.14-5.67 2.51s2.08 3.87 4.15 4.36zm-2.33-2.46c-2.56-3.66 2.71-3.64 4.26-3.18a22.62 22.62 0 0 1 2.92 1.14 62.72 62.72 0 0 1 5.67 3.14c-1.74.06-3.46.27-5.2.39-2.07.1-6.24.47-7.65-1.54z"/></g><use xlink:href="#D" class="C"/><use xlink:href="#D" class="L"/><g class="B"><path d="M135.22 425.88c-12.08-1.23-35.54-2.39-38.57-2.05-.06 0-.07.12 0 .13 3 .66 31.46 2.39 38.57 2.12a.1.1 0 0 0 0-.2zm4.78-44.34l-2.49 32.35a.12.12 0 0 1-.24 0l3.53-57.7 4.34-57.35c.89-10.78 2.26-20.68 3.34-31.44a.29.29 0 0 1 .58 0c-1.26 19.22-3.29 37.55-4.72 56.77m-38.26 57.35q2.13-18.78 4.35-37.55 2.22-18.77 4.36-37.55l2.19-18.77q.57-4.69 1.13-9.39a83.24 83.24 0 0 0 1-9.3c0-3.41-1.28-6.49-1.94-9.78a37.28 37.28 0 0 1-.58-9.49c.36-6.56 1.72-12.13 4-19.08.12-.34.35-.36.25 0a94 94 0 0 0-3.64 17.72 38.26 38.26 0 0 0 .25 9c.44 2.87 1.52 5.56 2.07 8.39s.06 5.9-.29 8.83l-1.07 9.39-2.13 18.4-8.75 74.71-5.14 42c0 .1-.18.1-.17 0 1.13-12.51 2.69-25.05 4.11-37.53zm15.86-130.63c.73-.25 3.88-.89 4.64-1.19a17.68 17.68 0 0 0 4.09-2.24 9.31 9.31 0 0 0 2.75-3.66l2.18-4.87a.09.09 0 0 1 .1 0 8.23 8.23 0 0 1-.55 2.29l-.86 2.64a9.06 9.06 0 0 1-2.77 4.23 14.31 14.31 0 0 1-4.52 2.41 15.44 15.44 0 0 1-2.59.6 6.78 6.78 0 0 1-2.46 0c-.17.01-.12-.17-.01-.21zm32.75 6.55q.24-2.25.54-4.5c.44-3.41.94-6.83 1.68-10.19.06-.27.43-.15.39.1l-1.11 8c-.36 2.7-.79 5.28-.95 7.92 0 .8-.05 2.16.92 2.42 1.31.35 2-1.36 2.36-2.29a44.28 44.28 0 0 0 1.95-7.18c.55-2.77.89-5.59 1.28-8.39 0-.1.18-.08.18 0-.22 5.59-.54 11.42-2.84 16.6a3.11 3.11 0 0 1-2.4 2.11h-.06a.16.16 0 0 1 0 .1c0 .15-.08.3-.11.46a3.15 3.15 0 0 1-.1.39c-.04.13-.11.54-.19.8a.21.21 0 0 1-.41-.06.16.16 0 0 1-.1-.17 4.26 4.26 0 0 1 .42-1.56 2 2 0 0 1-1.39-1.28 7.13 7.13 0 0 1-.06-3.28z"/><path d="M158.51 262.58a79.12 79.12 0 0 0-12.51 5.93.14.14 0 0 0 .12.25c4.23-1.84 8.54-3.6 12.67-5.68a.28.28 0 0 0-.28-.5z"/><use xlink:href="#E"/><use xlink:href="#E"/></g><g class="H"><path d="M135.26 186.69c-18.47-4.32-44.89-12.25-47-19-2-6.22-.49-24.75 2-42.36.5-3.5 27.5 1.81 26.59 5.48-1.78 7.24-5.42 24.25-4.61 28.49.35 1.82 17.23 11.43 28 19.84 9.45 7.39 2.08 9.21-4.98 7.55z"/><path d="M90.35,126.54c-.23-3-.18-16.93.72-20.76s4.28-14.64,7.28-14.25,2.26,3.64,2.26,3.64,2.15-4.35,5.13-3.68,1.67,5.68,1.67,5.68,2.54-4.29,5.47-3.42.76,5.7.76,5.7,2.13-4,4.24-2.29c2.53,2.09-2.24,9.09-2.92,13.38-.15,1-1.7,20-1.7,20Z"/></g><path d="M113.82 99c-3.51 5.15-4.14 8-4.35 14.14 0 .12-.18.15-.19 0-.35-6-.06-9.73 4.29-14.35.22-.16.43 0 .25.21zm-6.12-2.23c-3.17 5.67-3.89 8.77-4.58 15.17 0 .09-.16.09-.16 0 .15-6.35.52-10 4.43-15.29.17-.23.45-.14.31.12zm-7.12-1.28c-2.67 5.72-3.61 9.08-3.47 15.38 0 .15-.22.17-.23 0-.76-6.41.37-10.62 3.52-15.46.22-.31.35-.28.18.08z" class="B"/><path d="M113.2 134.46s5.51-5.54 7.39-8.5 4.83-16.61 1.92-17.41c-3.76-1-7 6.5-8.12 10.4 0 0-8.68-2.41-12.19 2.5s11 13.01 11 13.01z" class="H"/><path d="M121.38 108.6c-4.11 1.53-5.23 6.74-6.59 10.44a.36.36 0 0 1-.57.18c-3.7-.77-9.16-.77-12.06 2a.09.09 0 1 1-.13-.12c2.71-3.37 8.06-3.81 12.07-2.71 1.33-3.81 2.69-9 7.27-9.81.02-.02.04.02.01.02zm-9.31 73.4l10.41-17.55s12.8 8.45 19.51 14.88 6.52 11.12-6.76 8.31-23.16-5.64-23.16-5.64z" class="B"/><path d="M124.78 167.17l-3.83 7.42-2 3.6-2.2 3.65c0 .08-.19 0-.15-.07l1.82-3.69 2-3.72q2-3.68 4.2-7.24c.09-.07.2-.02.16.05z" class="E"/><use xlink:href="#F" class="C"/><use xlink:href="#F" class="L"/><path d="M147.65 189.5l-5.33-10.83.86-.56 5.5 11.3-1.03.09z" class="C"/><path d="M147.65 189.5l-5.33-10.83.86-.56 5.5 11.3-1.03.09z" class="L"/><path d="M160.5 188.28l-5.72-9.61 1.26.48 5.46 9.04-1 .09z" class="C"/><path d="M160.5 188.28l-5.72-9.61 1.26.48 5.46 9.04-1 .09z" class="L"/><path d="M149.74 191.1a.85.85 0 1 1-.85-.84.85.85 0 0 1 .85.84zm12.26-1.91a.79.79 0 0 1-.23 1.07.87.87 0 1 1 .23-1.07z" class="C"/><g class="B"><path d="M116.62 227.23l11.69.57 11.69.6 11.68.55c3.89.16 7.79.28 11.7.29-3.9.3-7.81.31-11.71.28s-7.81-.2-11.71-.37-7.8-.45-11.69-.77-7.78-.68-11.65-1.15zm1.27-4.46l11.48.53 11.47.57 11.47.51 11.48.28c-3.82.3-7.66.32-11.5.3s-7.66-.18-11.49-.34-7.65-.43-11.47-.74-7.64-.65-11.44-1.11z"/><path d="M120.81 223a17.06 17.06 0 0 0-.56 2.18 8.08 8.08 0 0 0-.15 1.1c0 .37 0 .74-.06 1.14a3.73 3.73 0 0 1-.29-2.33 4 4 0 0 1 1.06-2.09zm1.02 0a17.06 17.06 0 0 0-.56 2.18 8.08 8.08 0 0 0-.15 1.1c-.05.37 0 .74-.05 1.14a3.67 3.67 0 0 1-.3-2.33 4 4 0 0 1 1.06-2.09zm12.3.87a18.47 18.47 0 0 0-.57 2.18c-.07.36-.11.72-.15 1.09s0 .74 0 1.14a3.63 3.63 0 0 1-.29-2.32 3.91 3.91 0 0 1 1.01-2.09zm1.02 0a18.47 18.47 0 0 0-.57 2.18c-.07.36-.11.72-.15 1.09s0 .74-.05 1.14a3.63 3.63 0 0 1-.29-2.32 3.91 3.91 0 0 1 1.06-2.09z"/><use xlink:href="#G"/><path d="M147.08 229.17a18.47 18.47 0 0 0 .57-2.18c.07-.36.11-.72.15-1.09s0-.75 0-1.14a3.63 3.63 0 0 1 .29 2.32 3.91 3.91 0 0 1-1.01 2.09zm11.2 0a15.26 15.26 0 0 0 .57-2.18 9.85 9.85 0 0 0 .15-1.09l.05-1.14a3.63 3.63 0 0 1 .29 2.32 3.91 3.91 0 0 1-1.06 2.09z"/><use xlink:href="#G" x="9.16"/><path d="M149.92 212a43.7 43.7 0 0 1 7.36 1.08l3.58 1.06 1.78.54a7.28 7.28 0 0 0 1.9.33c.05 0 .06.1 0 .1a11 11 0 0 1-1.81 0 12.65 12.65 0 0 1-1.74-.3l-3.66-1-7.43-1.65c-.11.1-.09-.16.02-.16zm-5.92 2.84a45.87 45.87 0 0 1 6.08-.61l3 .08c.49 0 1 .07 1.46.12l1.6.24c.05 0 .06.11 0 .11l-1.52.05h-1.52l-3.05.05-6.1.13c-.09-.01-.09-.16.05-.17z"/></g><path d="M144.52 179.67c.41.9 6.13 6.12 10.4 5.06 1.39-.35-.17-8-.17-8v-.59l.2-8.29-10.52-4.13-1.51-.52.25 5.1v.4.46c0 .42 0 .86.06 1.29s0 .64.07 1 .06.68.08 1a55.92 55.92 0 0 0 1.14 7.22z" class="H"/><path d="M143.18 168.28a16.66 16.66 0 0 0 11.58 7.84l.2-8.29-10.52-4.13-1.51-.52.25 5.1z" class="B"/><path d="M164.61 154.2c3.57 14.11-4.48 17.84-7.52 18.61-2.77.69-12.27 2.71-17.27-11s.43-19.79 6.67-21.71 14.56-.01 18.12 14.1z" class="H"/><path d="M159.07 152.48h-1a1.69 1.69 0 0 1-1-.17.52.52 0 0 1-.16-.62 1.3 1.3 0 0 1 1.17-.6 1.92 1.92 0 0 1 1.33.37.56.56 0 0 1-.34 1.02zm-9.82 2.16a9.72 9.72 0 0 0 .92-.44 1.67 1.67 0 0 0 .84-.63.52.52 0 0 0-.15-.62 1.3 1.3 0 0 0-1.32 0 2 2 0 0 0-1 .94.56.56 0 0 0 .71.75z" class="P"/><g class="B"><path d="M152 156.89s-.06.07 0 .11c.32.94.54 2.09-.23 2.67v.05c.99-.47.7-1.98.23-2.83z"/><path d="M150.84 156.15c-1.57.36-.74 3.49.72 3.15s.61-3.45-.72-3.15z"/><path d="M150.27 156.48c-.22.25-.41.63-.73.75s-.74-.11-1.07-.36h-.05c.15.6.55 1.16 1.21 1.08s.89-.72.88-1.36c0-.07-.14-.21-.24-.11zm7.28-1.48s.08 0 .09.07c.19 1 .57 2.08 1.53 2.21a0 0 0 0 1 0 .06c-1.11.09-1.6-1.34-1.62-2.34z"/><path d="M158.19 153.79c1.55-.48 2.38 2.65.94 3.09s-2.23-2.7-.94-3.09z"/><path d="M158.9 153.82c.29.1.61.33.91.28s.51-.48.65-.86c.18.59.15 1.27-.4 1.54s-1-.17-1.31-.73c-.01-.05.03-.27.15-.23zM154.35 165c.28.18.57.46.93.42a2.58 2.58 0 0 0 1-.44 0 0 0 0 1 0 0 1.36 1.36 0 0 1-1.15.77 1.07 1.07 0 0 1-.94-.73.081.081 0 0 1 .16-.02zm3.21-4.54l.72 2.09c0 .07-.14.14-.37.21h0a3.36 3.36 0 0 1-3.46-.45c-.07 0 0-.14.08-.12a5 5 0 0 0 3.18.13c0-.2-1-2.38-.92-2.41a6.32 6.32 0 0 1 1.64 0c-1.08-3-2.61-5.72-3.64-8.68a.1.1 0 0 1 .17-.09 50.22 50.22 0 0 1 4.31 9.19c.13.35-1.41.18-1.71.13z"/><path d="M157.78 162.52a4.18 4.18 0 0 1-1.18 1.69 1.89 1.89 0 0 1-1 .39c-.83 0-1.07-.66-1.12-1.31a4.3 4.3 0 0 1 .06-1 5.23 5.23 0 0 0 3.24.23z"/></g><path d="M156.6 164.21a1.89 1.89 0 0 1-1 .39c-.83 0-1.07-.66-1.12-1.31a1.9 1.9 0 0 1 2.12.92z" class="O"/><path d="M140.56 161.37c2.34-.31 1.86-5.26 1.86-5.26s4.7-1 4.83-8a10.56 10.56 0 0 1-.91 6s8.09-2.6 10.12-10.25c0 0-.65 3.81-1.69 5.34a9.87 9.87 0 0 0 4.37-4.86s2.28 3.69 3.63 4.56c0 0-3.37-14.4-16.45-10.06 0 0-8.27 2.31-9.9 9.59s4.14 12.94 4.14 12.94z" class="P"/><path d="M143,161.27s-3.86-4-5.72-2.53,1.56,7.57,4.1,8.07a2.46,2.46,0,0,0,3-1.83Z" class="H"/><path d="M138.35 160.47v.07a6.18 6.18 0 0 1 3.8 3.32 1.36 1.36 0 0 0-2.06 0s0 .1.06.08a1.54 1.54 0 0 1 1.73.26 7.67 7.67 0 0 1 1 1.2c.1.14.36 0 .27-.15h0c-.33-2.25-2.47-4.94-4.8-4.78z" class="B"/><defs ><path id="B" d="M292.82 426.53c-5.45-1.51-12.23-1.5-16.65 1.5-.17.11 0 .34.21.31a84.94 84.94 0 0 1 16.38-1.2.31.31 0 0 0 .06-.61z"/><path id="C" d="M179.11 422.52l-44.19-8 14-77.12c-.34-2.26-21.95-109.69-21.95-109.69l36.44 1.52L190 338.7c1.23 15.46-10.89 83.82-10.89 83.82z"/><path id="D" d="M163.37 229.2s-1 17.4-5.51 31l-1.18 3.3c0 0-1.58-.08-8.09 3.55L136.37 433.9l-43-2.24 10.72-93.91c.29-9.12 7.87-70.64 7.41-72.22-4.68-16.17 5.09-38.3 5.09-38.3z"/><path id="E" d="M116.61 227.23l46.76 2 1.22-13.59s4.24-5.15 4.24-11.11c0-6.32-11.3-23.46-12.23-24.43-3.73-3.91-10.13-4.51-13.42-2-17.55 13.35-26.57 49.13-26.57 49.13z"/><path id="F" d="M168.84 204.55c0 5.95-4.24 11.11-4.24 11.11l-1.22 13.58-46.76-2a154.29 154.29 0 0 1 8.7-24.1c.91.1 7.5 4.74 16.36-.42 5.33-3.1 6-13.21 6-13.21l14.15-1.35c3.32 5.63 7.01 12.77 7.01 16.39z"/><path id="G" d="M148.1 229.17a18.47 18.47 0 0 0 .57-2.18c.07-.36.11-.72.15-1.09s0-.75.05-1.14a3.63 3.63 0 0 1 .29 2.32 3.91 3.91 0 0 1-1.06 2.09z"/></defs></svg>